<svg height="512pt" viewBox="0 -76 512 512" width="512pt" xmlns="http://www.w3.org/2000/svg"><path d="m57.691406 40.179688v320.382812h411.039063c5.691406 0 10.304687-4.609375 10.304687-10.300781v-310.082031zm0 0" fill="#aa8452"/><path d="m448.492188 112.289062v248.277344h-360.261719v-248.277344c0-2.839843 2.308593-5.148437 5.152343-5.148437h349.960938c2.839844 0 5.148438 2.308594 5.148438 5.148437zm0 0" fill="#604837"/><path d="m479.035156 40.179688v310.082031c0 5.6875-4.617187 10.304687-10.304687 10.304687h-30.902344c5.6875 0 10.300781-4.617187 10.300781-10.304687v-310.082031zm0 0" fill="#7f5c3e"/><path d="m301.84375 360.566406v-58.207031c0-5.6875-4.613281-10.300781-10.304688-10.300781h-114.347656v68.507812zm0 0" fill="#edaf54"/><path d="m257.546875 178.222656c0 5.972656 4.839844 10.816406 10.816406 10.816406 5.972657 0 10.816407-4.84375 10.816407-10.816406v-9.273437h-21.632813zm0 0" fill="#ffd47d"/><path d="m197.796875 226.125v124.136719c0 5.6875-4.617187 10.304687-10.304687 10.304687h-177.191407c-5.6875 0-10.300781-4.617187-10.300781-10.304687v-124.136719c0-2.53125.917969-4.851562 2.429688-6.644531 1.898437-2.234375 4.71875-3.65625 7.871093-3.65625h177.191407c3.152343 0 5.976562 1.421875 7.871093 3.65625 1.515625 1.792969 2.433594 4.113281 2.433594 6.644531zm0 0" fill="#ffd47d"/><g fill="#edaf54"><path d="m31.078125 337.214844c-4.269531 0-7.726563-3.460938-7.726563-7.726563v-8.929687c0-4.265625 3.457032-7.726563 7.726563-7.726563 4.265625 0 7.726563 3.460938 7.726563 7.726563v8.929687c0 4.265625-3.460938 7.726563-7.726563 7.726563zm0 0"/><path d="m61.980469 338.242188c-4.265625 0-7.722657-3.457032-7.722657-7.722657v-8.929687c0-4.269532 3.457032-7.726563 7.722657-7.726563 4.269531 0 7.726562 3.457031 7.726562 7.726563v8.929687c.003907 4.265625-3.457031 7.722657-7.726562 7.722657zm0 0"/><path d="m92.886719 338.242188c-4.265625 0-7.726563-3.457032-7.726563-7.722657v-8.929687c0-4.269532 3.460938-7.726563 7.726563-7.726563 4.269531 0 7.726562 3.457031 7.726562 7.726563v8.929687c0 4.265625-3.457031 7.722657-7.726562 7.722657zm0 0"/></g><path d="m297.898438 173.585938h-59.074219c-1.832031 0-2.757813-2.214844-1.460938-3.511719l23.273438-23.273438v-39.660156h15.453125v39.660156l23.269531 23.273438c1.296875 1.296875.371094 3.511719-1.460937 3.511719zm0 0" fill="#ccc"/><path d="m512 57.175781v-.128906c0 8.25-6.6875 15.066406-14.9375 15.066406h-45.84375c-8.25 0-15.453125-7.203125-15.453125-15.453125v-56.660156h48.789063c4.144531 0 7.886718 2.484375 9.496093 6.304688l17.949219 46.75z" fill="#ff8c64"/><path d="m384.257812 72.113281h36.054688c8.535156 0 15.453125-6.917969 15.453125-15.453125v-56.660156h-66.960937v56.660156c0 8.535156 6.917968 15.453125 15.453124 15.453125zm0 0" fill="#f96046"/><path d="m317.296875 72.113281h36.054687c8.535157 0 15.453126-6.917969 15.453126-15.453125v-56.660156h-66.960938v56.660156c0 8.535156 6.917969 15.453125 15.453125 15.453125zm0 0" fill="#ff8c64"/><path d="m250.335938 72.113281h36.054687c8.535156 0 15.453125-6.917969 15.453125-15.453125v-56.660156h-66.960938v56.660156c0 8.535156 6.917969 15.453125 15.453126 15.453125zm0 0" fill="#f96046"/><path d="m183.371094 72.113281h36.058594c8.53125 0 15.453124-6.917969 15.453124-15.453125v-56.660156h-66.960937v56.660156c0 8.535156 6.917969 15.453125 15.449219 15.453125zm0 0" fill="#ff8c64"/><path d="m116.410156 72.113281h36.054688c8.535156 0 15.453125-6.917969 15.453125-15.453125v-56.660156h-66.960938v56.660156c0 8.535156 6.917969 15.453125 15.453125 15.453125zm0 0" fill="#f96046"/><path d="m24.894531 57.175781v-.128906c0 8.25 6.691407 15.066406 14.941407 15.066406h45.839843c8.25 0 15.453125-7.203125 15.453125-15.453125v-56.660156h-48.789062c-4.144532 0-7.886719 2.484375-9.496094 6.304688l-17.949219 46.75z" fill="#ff8c64"/><path d="m512 53.054688v4c0 8.238281-6.6875 15.058593-14.9375 15.058593h-30.90625c8.253906 0 14.9375-6.820312 14.9375-15.058593v-4l-17.945312-46.75c-1.605469-3.820313-5.355469-6.304688-9.496094-6.304688h30.902344c4.140624 0 7.890624 2.484375 9.5 6.304688zm0 0" fill="#ed5743"/><path d="m301.84375 302.359375v58.203125h-30.90625v-58.203125c0-5.6875-4.613281-10.300781-10.300781-10.300781h30.902343c5.6875 0 10.304688 4.613281 10.304688 10.300781zm0 0" fill="#db8733"/><path d="m197.796875 226.125v124.136719c0 5.6875-4.617187 10.304687-10.304687 10.304687h-30.902344c5.683594 0 10.300781-4.617187 10.300781-10.304687v-92.878907c3.59375-2.277343 6.738281-5.304687 9.179687-8.964843l19.292969-28.9375c1.515625 1.792969 2.433594 4.113281 2.433594 6.644531zm0 0" fill="#e89e46"/><path d="m195.363281 219.480469-19.292969 28.9375c-5.738281 8.601562-15.382812 13.765625-25.726562 13.765625h-102.894531c-10.34375 0-19.984375-5.164063-25.722657-13.765625l-19.296874-28.9375c1.898437-2.234375 4.71875-3.65625 7.871093-3.65625h177.191407c3.152343 0 5.976562 1.421875 7.871093 3.65625zm0 0" fill="#edaf54"/><path d="m195.363281 219.480469-19.292969 28.9375c-2.441406 3.65625-5.585937 6.6875-9.179687 8.964843v-31.257812c0-2.53125-.917969-4.851562-2.429687-6.644531-1.898438-2.234375-4.71875-3.65625-7.871094-3.65625h30.902344c3.152343 0 5.976562 1.421875 7.871093 3.65625zm0 0" fill="#db8733"/></svg>