<?xml version="1.0"?>
<svg xmlns="http://www.w3.org/2000/svg" id="Layer_1" data-name="Layer 1" viewBox="0 0 512 512" width="512" height="512"><title>Plane 2</title><path d="M496.242,343.147q-.3-.109-.6-.193L362.693,306.417q.31-4.075.313-8.231A107.327,107.327,0,0,0,281.761,194.2L275.773,154H316a7,7,0,0,0,0-14H273.682L262.93,68.157a7.014,7.014,0,0,0-13.847-.031L238.331,140H196a7,7,0,0,0,0,14h40.24l-5.988,40.2a107.257,107.257,0,0,0-81.246,103.921c0,2.679.1,5.366.3,8L16.336,342.939c-.2.055-.4.127-.6.2a11.006,11.006,0,0,0-2.757,19.081l14.225,10.741a11.031,11.031,0,0,0,6.637,2.221,8.455,8.455,0,0,0,1.433-.123L77,370.874v3.96C69,377.765,62.2,386,62.2,395.686a21.975,21.975,0,1,0,43.949,0A21.8,21.8,0,0,0,91,374.834v-5.359l78.7-7.84a107.288,107.288,0,0,0,172.41.266L421,369.585v5.249a21.95,21.95,0,0,0,6.628,42.852,22.185,22.185,0,0,0,22.186-22c0-9.684-6.814-17.921-14.814-20.852v-3.88l41.8,4.111a9.17,9.17,0,0,0,1.485.12,10.849,10.849,0,0,0,6.575-2.221l14.187-10.735a11,11,0,0,0-2.806-19.082ZM84.408,403.686a8,8,0,1,1,8-8A8.009,8.009,0,0,1,84.408,403.686Zm343.1,0a8,8,0,1,1,8-8A8.009,8.009,0,0,1,427.5,403.686Zm-171.5-287,11.218,75.085a107.476,107.476,0,0,0-22.435,0ZM34.691,361.071l-8.4-6.345,124.986-34.594A106.242,106.242,0,0,0,161.545,348.4Zm221.315,30.115a93,93,0,1,1,93-93A93.106,93.106,0,0,1,256.006,391.186Zm221.308-30.113L350.331,348.658a106.212,106.212,0,0,0,10.353-28.273L485.7,354.741Z"/><path d="M315.016,244.971a7,7,0,0,0-6.408-.845,154.217,154.217,0,0,1-105.216,0A7,7,0,0,0,194,250.7v40.483a7,7,0,0,0,4.608,6.578,168.205,168.205,0,0,0,114.784,0A7,7,0,0,0,318,291.187V250.7A7,7,0,0,0,315.016,244.971ZM304,286.2a154.226,154.226,0,0,1-96,0V260.387a168.336,168.336,0,0,0,96,0Z"/><path d="M231,405.686a22,22,0,1,0,22,22A22.025,22.025,0,0,0,231,405.686Zm0,30a8,8,0,1,1,8-8A8.009,8.009,0,0,1,231,435.686Z"/><path d="M281,405.686a22,22,0,1,0,22,22A22.025,22.025,0,0,0,281,405.686Zm0,30a8,8,0,1,1,8-8A8.009,8.009,0,0,1,281,435.686Z"/></svg>
