<?xml version="1.0" encoding="utf-8"?>
<!-- Generator: Adobe Illustrator 22.0.1, SVG Export Plug-In . SVG Version: 6.00 Build 0)  -->
<svg version="1.1" id="Слой_1" xmlns="http://www.w3.org/2000/svg" xmlns:xlink="http://www.w3.org/1999/xlink" x="0px" y="0px"
	 viewBox="0 0 390 768" style="enable-background:new 0 0 390 768;" xml:space="preserve">
<style type="text/css">
	.st0{display:none;fill:#FFFFFF;stroke:#000000;stroke-miterlimit:10;}
	.st1{fill:#FFEB3B;}
	.st2{fill:#00E676;}
	.st3{fill:#039BE5;}
	.st4{fill:#FF5722;}
</style>
<rect x="-9.9" y="147" class="st0" width="397.9" height="480"/>
<g>
	<line class="st1" x1="35.1" y1="55" x2="35.1" y2="35"/>
	<g>
		<path class="st1" d="M45.1,55c0-6.7,0-13.3,0-20c0-12.9-20-12.9-20,0c0,6.7,0,13.3,0,20C25.1,67.9,45.1,67.9,45.1,55L45.1,55z"/>
	</g>
</g>
<g>
	<line class="st1" x1="75.1" y1="95" x2="75.1" y2="75"/>
	<g>
		<path class="st1" d="M85.1,95c0-6.7,0-13.3,0-20c0-12.9-20-12.9-20,0c0,6.7,0,13.3,0,20C65.1,107.9,85.1,107.9,85.1,95L85.1,95z"
			/>
	</g>
</g>
<g>
	<g>
		<path class="st2" d="M125.1,95c0-6.7,0-13.3,0-20c0-12.9-20-12.9-20,0c0,6.7,0,13.3,0,20C105.1,107.9,125.1,107.9,125.1,95
			L125.1,95z"/>
	</g>
</g>
<g>
	<g>
		<path class="st3" d="M165.1,55c0-6.7,0-13.3,0-20c0-12.9-20-12.9-20,0c0,6.7,0,13.3,0,20C145.1,67.9,165.1,67.9,165.1,55L165.1,55
			z"/>
	</g>
</g>
<g>
	<g>
		<path class="st4" d="M165.1,135c0-6.7,0-13.3,0-20c0-12.9-20-12.9-20,0c0,6.7,0,13.3,0,20C145.1,147.9,165.1,147.9,165.1,135
			L165.1,135z"/>
	</g>
</g>
<g>
	<g>
		<path class="st2" d="M205.1,95c0-6.7,0-13.3,0-20c0-12.9-20-12.9-20,0c0,6.7,0,13.3,0,20C185.1,107.9,205.1,107.9,205.1,95
			L205.1,95z"/>
	</g>
</g>
<g>
	<line class="st1" x1="235.1" y1="55" x2="235.1" y2="35"/>
	<g>
		<path class="st1" d="M245.1,55c0-6.7,0-13.3,0-20c0-12.9-20-12.9-20,0c0,6.7,0,13.3,0,20C225.1,67.9,245.1,67.9,245.1,55L245.1,55
			z"/>
	</g>
</g>
<g>
	<g>
		<path class="st4" d="M285.1,55c0-6.7,0-13.3,0-20c0-12.9-20-12.9-20,0c0,6.7,0,13.3,0,20C265.1,67.9,285.1,67.9,285.1,55L285.1,55
			z"/>
	</g>
</g>
<g>
	<g>
		<path class="st3" d="M285.1,135c0-6.7,0-13.3,0-20c0-12.9-20-12.9-20,0c0,6.7,0,13.3,0,20C265.1,147.9,285.1,147.9,285.1,135
			L285.1,135z"/>
	</g>
</g>
<g>
	<g>
		<path class="st2" d="M325.1,95c0-6.7,0-13.3,0-20c0-12.9-20-12.9-20,0c0,6.7,0,13.3,0,20C305.1,107.9,325.1,107.9,325.1,95
			L325.1,95z"/>
	</g>
</g>
<g>
	<line class="st1" x1="355.1" y1="95" x2="355.1" y2="75"/>
	<g>
		<path class="st1" d="M365.1,95c0-6.7,0-13.3,0-20c0-12.9-20-12.9-20,0c0,6.7,0,13.3,0,20C345.1,107.9,365.1,107.9,365.1,95
			L365.1,95z"/>
	</g>
</g>
<g>
	<g>
		<path class="st4" d="M45.1,135c0-6.7,0-13.3,0-20c0-12.9-20-12.9-20,0c0,6.7,0,13.3,0,20C25.1,147.9,45.1,147.9,45.1,135L45.1,135
			z"/>
	</g>
</g>
<g>
	<g>
		<path class="st2" d="M85.1,175c0-6.7,0-13.3,0-20c0-12.9-20-12.9-20,0c0,6.7,0,13.3,0,20C65.1,187.9,85.1,187.9,85.1,175L85.1,175
			z"/>
	</g>
</g>
<g>
	<line class="st1" x1="195.1" y1="175" x2="195.1" y2="155"/>
	<g>
		<path class="st1" d="M205.1,175c0-6.7,0-13.3,0-20c0-12.9-20-12.9-20,0c0,6.7,0,13.3,0,20C185.1,187.9,205.1,187.9,205.1,175
			L205.1,175z"/>
	</g>
</g>
<g>
	<g>
		<path class="st2" d="M365.1,175c0-6.7,0-13.3,0-20c0-12.9-20-12.9-20,0c0,6.7,0,13.3,0,20C345.1,187.9,365.1,187.9,365.1,175
			L365.1,175z"/>
	</g>
</g>
<g>
	<g>
		<path class="st2" d="M45.1,697c0-6.7,0-13.3,0-20c0-12.9-20-12.9-20,0c0,6.7,0,13.3,0,20C25.1,709.9,45.1,709.9,45.1,697L45.1,697
			z"/>
	</g>
</g>
<g>
	<g>
		<path class="st4" d="M85.1,737c0-6.7,0-13.3,0-20c0-12.9-20-12.9-20,0c0,6.7,0,13.3,0,20C65.1,749.9,85.1,749.9,85.1,737L85.1,737
			z"/>
	</g>
</g>
<g>
	<line class="st1" x1="115.1" y1="657" x2="115.1" y2="637"/>
	<g>
		<path class="st1" d="M125.1,657c0-6.7,0-13.3,0-20c0-12.9-20-12.9-20,0c0,6.7,0,13.3,0,20C105.1,669.9,125.1,669.9,125.1,657
			L125.1,657z"/>
	</g>
</g>
<g>
	<g>
		<path class="st2" d="M165.1,737c0-6.7,0-13.3,0-20c0-12.9-20-12.9-20,0c0,6.7,0,13.3,0,20C145.1,749.9,165.1,749.9,165.1,737
			L165.1,737z"/>
	</g>
</g>
<g>
	<g>
		<path class="st3" d="M165.1,657c0-6.7,0-13.3,0-20c0-12.9-20-12.9-20,0c0,6.7,0,13.3,0,20C145.1,669.9,165.1,669.9,165.1,657
			L165.1,657z"/>
	</g>
</g>
<g>
	<g>
		<path class="st4" d="M205.1,697c0-6.7,0-13.3,0-20c0-12.9-20-12.9-20,0c0,6.7,0,13.3,0,20C185.1,709.9,205.1,709.9,205.1,697
			L205.1,697z"/>
	</g>
</g>
<g>
	<line class="st1" x1="235.1" y1="697" x2="235.1" y2="677"/>
	<g>
		<path class="st1" d="M245.1,697c0-6.7,0-13.3,0-20c0-12.9-20-12.9-20,0c0,6.7,0,13.3,0,20C225.1,709.9,245.1,709.9,245.1,697
			L245.1,697z"/>
	</g>
</g>
<g>
	<g>
		<path class="st2" d="M285.1,657c0-6.7,0-13.3,0-20c0-12.9-20-12.9-20,0c0,6.7,0,13.3,0,20C265.1,669.9,285.1,669.9,285.1,657
			L285.1,657z"/>
	</g>
</g>
<g>
	<line class="st1" x1="315.1" y1="737" x2="315.1" y2="717"/>
	<g>
		<path class="st1" d="M325.1,737c0-6.7,0-13.3,0-20c0-12.9-20-12.9-20,0c0,6.7,0,13.3,0,20C305.1,749.9,325.1,749.9,325.1,737
			L325.1,737z"/>
	</g>
</g>
<g>
	<g>
		<path class="st3" d="M365.1,697c0-6.7,0-13.3,0-20c0-12.9-20-12.9-20,0c0,6.7,0,13.3,0,20C345.1,709.9,365.1,709.9,365.1,697
			L365.1,697z"/>
	</g>
</g>
<g>
	<g>
		<path class="st4" d="M365.1,617c0-6.7,0-13.3,0-20c0-12.9-20-12.9-20,0c0,6.7,0,13.3,0,20C345.1,629.9,365.1,629.9,365.1,617
			L365.1,617z"/>
	</g>
</g>
<g>
	<g>
		<path class="st3" d="M45.1,617c0-6.7,0-13.3,0-20c0-12.9-20-12.9-20,0c0,6.7,0,13.3,0,20C25.1,629.9,45.1,629.9,45.1,617L45.1,617
			z"/>
	</g>
</g>
<g>
	<line class="st1" x1="195.1" y1="617" x2="195.1" y2="597"/>
	<g>
		<path class="st1" d="M205.1,617c0-6.7,0-13.3,0-20c0-12.9-20-12.9-20,0c0,6.7,0,13.3,0,20C185.1,629.9,205.1,629.9,205.1,617
			L205.1,617z"/>
	</g>
</g>
<g>
	<g>
		<path class="st2" d="M325.1,617c0-6.7,0-13.3,0-20c0-12.9-20-12.9-20,0c0,6.7,0,13.3,0,20C305.1,629.9,325.1,629.9,325.1,617
			L325.1,617z"/>
	</g>
</g>
<g>
	<g>
		<path class="st2" d="M285.1,737c0-6.7,0-13.3,0-20c0-12.9-20-12.9-20,0c0,6.7,0,13.3,0,20C265.1,749.9,285.1,749.9,285.1,737
			L285.1,737z"/>
	</g>
</g>
</svg>
