<?xml version="1.0" encoding="utf-8"?>
<!-- Generator: Adobe Illustrator 22.0.1, SVG Export Plug-In . SVG Version: 6.00 Build 0)  -->
<svg version="1.1" id="Слой_1" xmlns="http://www.w3.org/2000/svg" xmlns:xlink="http://www.w3.org/1999/xlink" x="0px" y="0px"
	 viewBox="0 0 1472 926" style="enable-background:new 0 0 1472 926;" xml:space="preserve">
<style type="text/css">
	.st0{display:none;}
	.st1{display:inline;fill:#FFFFFF;}
	.st2{display:inline;}
	.st3{fill:#FFEB3B;}
	.st4{fill:#FF5722;}
	.st5{fill:#00E676;}
	.st6{fill:#039BE5;}
</style>
<g class="st0">
	<rect x="278.5" y="218.5" class="st1" width="929" height="487"/>
	<path class="st2" d="M1207,219v486H279V219H1207 M1208,218H278v488h930V218L1208,218z"/>
</g>
<g>
	<line class="st3" x1="284" y1="190.1" x2="223.6" y2="154.3"/>
	<g>
		<path class="st3" d="M289.1,181.5c-20.2-12-40.3-23.9-60.5-35.9c-11.1-6.6-21.2,10.7-10.1,17.3c20.2,12,40.3,23.9,60.5,35.9
			C290.1,205.3,300.1,188.1,289.1,181.5L289.1,181.5z"/>
	</g>
</g>
<g>
	<g>
		<path class="st4" d="M1023.5,250.2c17.2-13.6,34.5-27.1,51.7-40.7c27.4-21.6,54.9-43.2,82.3-64.8c6.3-4.9,12.5-9.9,18.8-14.8
			c4.2-3.3,3.5-10.6,0-14.1c-4.2-4.2-9.9-3.4-14.1,0c-17.2,13.6-34.5,27.1-51.7,40.7c-27.4,21.6-54.9,43.2-82.3,64.8
			c-6.3,4.9-12.5,9.9-18.8,14.8c-4.2,3.3-3.5,10.6,0,14.1C1013.6,254.4,1019.3,253.6,1023.5,250.2L1023.5,250.2z"/>
	</g>
</g>
<g>
	<line class="st3" x1="856.5" y1="201.5" x2="894.5" y2="116.5"/>
	<g>
		<path class="st3" d="M865.1,206.5c11.1-24.8,22.2-49.6,33.2-74.3c1.6-3.6,3.2-7.1,4.8-10.7c2.2-4.9,1.4-10.7-3.6-13.7
			c-4.3-2.5-11.5-1.4-13.7,3.6c-11.1,24.8-22.2,49.6-33.2,74.3c-1.6,3.6-3.2,7.1-4.8,10.7c-2.2,4.9-1.4,10.7,3.6,13.7
			C855.7,212.6,862.9,211.5,865.1,206.5L865.1,206.5z"/>
	</g>
</g>
<g>
	<g>
		<path class="st5" d="M1230.2,278.1c38.9-15.2,77.8-30.4,116.7-45.6c5.4-2.1,10.9-4.2,16.3-6.4c5-2,8.5-6.7,7-12.3
			c-1.3-4.8-7.2-9-12.3-7c-38.9,15.2-77.8,30.4-116.7,45.6c-5.4,2.1-10.9,4.2-16.3,6.4c-5,2-8.5,6.7-7,12.3
			C1219.2,276,1225.1,280.1,1230.2,278.1L1230.2,278.1z"/>
	</g>
</g>
<g>
	<g>
		<path class="st4" d="M1356.5,546.5c26,3.3,52,6.7,78,10c5.4,0.7,10-5.1,10-10c0-6-4.6-9.3-10-10c-26-3.3-52-6.7-78-10
			c-5.4-0.7-10,5.1-10,10C1346.5,542.5,1351.1,545.8,1356.5,546.5L1356.5,546.5z"/>
	</g>
</g>
<g>
	<line class="st3" x1="1208.5" y1="425.5" x2="1248.5" y2="422.5"/>
	<g>
		<path class="st3" d="M1208.5,435.5c13.3-1,26.7-2,40-3c5.4-0.4,10-4.3,10-10c0-5.1-4.6-10.4-10-10c-13.3,1-26.7,2-40,3
			c-5.4,0.4-10,4.3-10,10C1198.5,430.6,1203.1,435.9,1208.5,435.5L1208.5,435.5z"/>
	</g>
</g>
<g>
	<g>
		<path class="st6" d="M1045.5,695.1c22.7,16.7,45.3,33.3,68,50c4.4,3.2,11.2,0.7,13.7-3.6c3-5.1,0.8-10.5-3.6-13.7
			c-22.7-16.7-45.3-33.3-68-50c-4.4-3.2-11.2-0.7-13.7,3.6C1038.9,686.5,1041.1,691.9,1045.5,695.1L1045.5,695.1z"/>
	</g>
</g>
<g>
	<line class="st3" x1="925.5" y1="744.5" x2="1008.5" y2="872.5"/>
	<g>
		<path class="st3" d="M916.9,749.5c24.3,37.5,48.6,74.9,72.9,112.4c3.4,5.2,6.8,10.4,10.1,15.6c7,10.8,24.3,0.7,17.3-10.1
			c-24.3-37.5-48.6-74.9-72.9-112.4c-3.4-5.2-6.8-10.4-10.1-15.6C927.2,728.7,909.8,738.7,916.9,749.5L916.9,749.5z"/>
	</g>
</g>
<g>
	<g>
		<path class="st4" d="M712.5,784.5c-1.3,24.7-2.7,49.3-4,74c-0.7,12.9,19.3,12.8,20,0c1.3-24.7,2.7-49.3,4-74
			C733.2,771.6,713.2,771.7,712.5,784.5L712.5,784.5z"/>
	</g>
</g>
<g>
	<line class="st3" x1="593.5" y1="752.5" x2="522.5" y2="894.5"/>
	<g>
		<path class="st3" d="M584.9,747.5c-20.7,41.4-41.4,82.8-62.1,124.1c-3,6-6,11.9-8.9,17.9c-5.7,11.5,11.5,21.6,17.3,10.1
			c20.7-41.4,41.4-82.8,62.1-124.1c3-6,6-11.9,8.9-17.9C607.9,746.1,590.6,735.9,584.9,747.5L584.9,747.5z"/>
	</g>
</g>
<g>
	<g>
		<path class="st5" d="M348.5,741.9c-11.7,8.7-23.3,17.3-35,26c-4.3,3.2-6.5,8.7-3.6,13.7c2.5,4.3,9.3,6.8,13.7,3.6
			c11.7-8.7,23.3-17.3,35-26c4.3-3.2,6.5-8.7,3.6-13.7C359.6,741.2,352.8,738.6,348.5,741.9L348.5,741.9z"/>
	</g>
</g>
<g>
	<g>
		<path class="st4" d="M237.8,562.9c-31.5,7.3-63,14.6-94.4,21.9c-4.5,1-9,2.1-13.6,3.1c-12.5,2.9-7.2,22.2,5.3,19.3
			c31.5-7.3,63-14.6,94.4-21.9c4.5-1,9-2.1,13.6-3.1C255.7,579.2,250.4,560,237.8,562.9L237.8,562.9z"/>
	</g>
</g>
<g>
	<g>
		<path class="st6" d="M299.5,400.5c-41.8-4.7-83.5-9.3-125.3-14c-5.9-0.7-11.8-1.3-17.7-2c-5.4-0.6-10,5-10,10c0,5.9,4.6,9.4,10,10
			c41.8,4.7,83.5,9.3,125.3,14c5.9,0.7,11.8,1.3,17.7,2c5.4,0.6,10-5,10-10C309.5,404.6,304.9,401.1,299.5,400.5L299.5,400.5z"/>
	</g>
</g>
<g>
	<g>
		<path class="st6" d="M688.1,230.8c-11.1-40.5-22.2-81.1-33.2-121.6c-1.6-5.8-3.2-11.6-4.8-17.4c-3.4-12.4-22.7-7.1-19.3,5.3
			c11.1,40.5,22.2,81.1,33.2,121.6c1.6,5.8,3.2,11.6,4.8,17.4C672.2,248.6,691.5,243.3,688.1,230.8L688.1,230.8z"/>
	</g>
</g>
<g>
	<g>
		<path class="st6" d="M184.7,793.8c-14.5,20.6-47.8,11.9-50.7-12.9c-3-26.2,29.7-41.5,48-22.8C191.6,767.9,192,782.5,184.7,793.8
			c-7,10.8,10.3,20.9,17.3,10.1c10.6-16.3,10.5-38.5-1.2-54.3c-12-16.2-33.2-23.9-52.7-18c-19.5,5.9-33.1,23.7-34.2,44
			c-1.1,20.2,11.7,39,30.2,46.5c21.3,8.7,45,0.2,57.9-18.2c3.1-4.4,0.8-11.1-3.6-13.7C193.4,787.3,187.8,789.4,184.7,793.8z"/>
	</g>
</g>
<g>
	<g>
		<path class="st5" d="M1313,725c-7.8,11.2-22.2,16.3-35.2,12.9c-13.3-3.5-23.5-15.3-24.6-28.9c-1.1-13.9,6.7-27.6,19.7-33.2
			c12.3-5.3,27-2.5,36.5,7.1C1320.9,694.4,1321.7,711.7,1313,725c-7.1,10.8,10.3,20.8,17.3,10.1c11.9-18.2,11.5-42.8-1.5-60.3
			c-13.2-17.7-36.6-26-58-19.5c-21.4,6.6-36.4,26-37.6,48.3c-1.2,22.5,12.9,43.2,33.5,51.6c23.4,9.5,49.4,0.1,63.5-20.1
			c3.1-4.4,0.8-11.1-3.6-13.7C1321.7,718.5,1316.1,720.6,1313,725z"/>
	</g>
</g>
<g>
	<g>
		<path class="st3" d="M1288.1,112.5c-6.9,9.4-21.3-2.1-14.1-11.1c3.1-3.8,8.8-4.6,12.6-1.5C1290.8,103.3,1290.7,108.3,1288.1,112.5
			c-6.8,11,10.5,21,17.3,10.1c8.3-13.4,4.7-31.3-8.7-40c-13.2-8.6-31.4-4.5-40,8.7c-8.6,13.3-4.5,31.4,8.7,40c13.8,9,30.7,4,40-8.7
			c3.2-4.4,0.7-11.2-3.6-13.7C1296.7,106,1291.3,108.1,1288.1,112.5z"/>
	</g>
</g>
<g>
	<g>
		<path class="st5" d="M137.9,293.3c-14.5,20.6-47.8,11.9-50.7-12.9c-3-26.2,29.7-41.5,48-22.8C144.8,267.4,145.2,282,137.9,293.3
			c-7,10.8,10.3,20.9,17.3,10.1c10.6-16.3,10.5-38.5-1.2-54.3c-12-16.2-33.2-23.9-52.7-18c-19.5,5.9-33.1,23.7-34.2,44
			c-1.1,20.2,11.7,39,30.2,46.5c21.3,8.7,45,0.2,57.9-18.2c3.1-4.4,0.8-11.1-3.6-13.7C146.6,286.8,141,288.8,137.9,293.3z"/>
	</g>
</g>
<g>
	<g>
		<path class="st4" d="M480.5,165.4c-5.9,8.3-17.7,9.9-25.8,4.1c-8.2-5.9-10-17.8-4.1-25.8c6-8.2,17.7-10,25.8-4.1
			C485,145.8,485.9,156.9,480.5,165.4c-7,10.9,10.3,20.9,17.3,10.1c8.6-13.4,8.2-31.2-1.5-43.9c-9.6-12.7-26.6-18.7-42-13.8
			c-15.5,4.9-26.1,18.8-27.1,34.9c-1,16,9,31.1,23.5,37.2c17.4,7.3,36.4,0.6,47.1-14.4c3.1-4.4,0.8-11.1-3.6-13.7
			C489.2,158.9,483.6,161,480.5,165.4z"/>
	</g>
</g>
</svg>
