<?xml version="1.0"?>
<svg xmlns="http://www.w3.org/2000/svg" id="Layer_1" data-name="Layer 1" viewBox="0 0 512 512" width="512" height="512"><title>Local Train </title><path d="M126,392.837A40.318,40.318,0,0,0,166.23,433h15.531L139.34,481.424a6.99,6.99,0,0,0,10.535,9.191L162.664,476H349.31l12.82,14.616a6.989,6.989,0,0,0,10.525-9.2L330.152,433h15.611A40.32,40.32,0,0,0,386,392.837V95.791A23.9,23.9,0,0,0,362.311,72H355V68.023C355,58.138,344.881,50,331.6,50H315V40c0-6.065-5.341-11-11.406-11H208.406C202.341,29,197,33.935,197,40V50H180.393C167.118,50,157,58.138,157,68.023V72h-7.309A23.907,23.907,0,0,0,126,95.791V392.837ZM372,317H140V218.162L226.727,195h57.731L372,218.175ZM337.029,462H174.919l25.448-29H311.529Zm8.734-43H166.23A26.3,26.3,0,0,1,140,392.837V331H372v61.837A26.3,26.3,0,0,1,345.763,419ZM211,43h90v7H211ZM149.691,86h14.028a6.9,6.9,0,0,0,7-6.878l0-11.328c.191-.881,3.466-3.794,9.677-3.794H331.6c6.209,0,9.4,3.171,9.4,4.023V79.244C341,83.11,344.418,86,348.284,86h14.027A9.892,9.892,0,0,1,372,95.791v107.9l-84.762-22.47a7.514,7.514,0,0,0-1.867-.22H225.806a7.559,7.559,0,0,0-1.884.224L140,203.669V95.791A9.893,9.893,0,0,1,149.691,86Z"/><path d="M151.845,191.008a7.17,7.17,0,0,0,6.155,1.2l87.779-23.6A7.035,7.035,0,0,0,251,161.85V102a7.047,7.047,0,0,0-7.054-7H156.208A7.181,7.181,0,0,0,149,102v83.451A7.1,7.1,0,0,0,151.845,191.008ZM163,109h74v47.484L163,176.32Z"/><path d="M266.157,168.61l87.832,23.6a6.9,6.9,0,0,0,1.809.24,7.289,7.289,0,0,0,4.361-1.445A7.1,7.1,0,0,0,363,185.452V102a7.181,7.181,0,0,0-7.208-7H267.946A6.955,6.955,0,0,0,261,102V161.85A6.977,6.977,0,0,0,266.157,168.61ZM275,109h74v67.323l-74-19.841Z"/><path d="M208.041,277H175.165a16,16,0,0,0,0,32h32.876a16,16,0,0,0,0-32Zm0,18H175.165a2.006,2.006,0,0,1,0-4h32.876a2.006,2.006,0,0,1,0,4Z"/><path d="M303.959,309h32.876a16,16,0,0,0,0-32H303.959a16,16,0,0,0,0,32Zm0-18h32.876a2.006,2.006,0,0,1,0,4H303.959a2.006,2.006,0,0,1,0-4Z"/><path d="M256,227.407a19.055,19.055,0,1,0,19.055,19.055A19.077,19.077,0,0,0,256,227.407Zm0,24.11a5.055,5.055,0,1,1,5.055-5.055A5.061,5.061,0,0,1,256,251.517Z"/><path d="M186.083,346.884a26.388,26.388,0,1,0,26.389,26.387A26.418,26.418,0,0,0,186.083,346.884Zm0,38.776a12.388,12.388,0,1,1,12.389-12.389A12.4,12.4,0,0,1,186.083,385.66Z"/><path d="M325.916,346.884a26.388,26.388,0,1,0,26.389,26.387A26.418,26.418,0,0,0,325.916,346.884Zm0,38.776a12.388,12.388,0,1,1,12.389-12.389A12.4,12.4,0,0,1,325.916,385.66Z"/></svg>
