<?xml version="1.0" encoding="iso-8859-1"?>
<!-- Generator: Adobe Illustrator 19.0.0, SVG Export Plug-In . SVG Version: 6.00 Build 0)  -->
<svg version="1.1" id="Layer_1" xmlns="http://www.w3.org/2000/svg" xmlns:xlink="http://www.w3.org/1999/xlink" x="0px" y="0px"
	 viewBox="0 0 512 512" style="enable-background:new 0 0 512 512;" xml:space="preserve">
<path style="fill:#A2A9B0;" d="M449.819,287.65l-55.39-68.25c-11.808-14.55-29.328-22.895-48.067-22.895h-42.493
	c-8.753,0-15.849,7.096-15.849,15.849v85.284c0,8.753,7.096,15.849,15.849,15.849h133.644c6.112,0,11.68-3.515,14.308-9.034
	C454.451,298.934,453.672,292.396,449.819,287.65z"/>
<path style="fill:#CFCDCF;" d="M348.384,196.506h-44.515c-8.753,0-15.849,7.096-15.849,15.849v85.283
	c0,8.753,7.096,15.849,15.849,15.849h44.695L348.384,196.506z"/>
<path style="fill:#555559;" d="M348.431,251.615c-8.753,0-15.849,7.096-15.849,15.849v20.14c0,8.753,7.096,15.849,15.849,15.849
	c8.753,0,15.849-7.096,15.849-15.849v-20.14C364.28,258.711,357.184,251.615,348.431,251.615z"/>
<path style="fill:#AEADB3;" d="M348.431,251.615c-8.753,0-15.849,7.096-15.849,15.849v20.14c0,8.753,7.096,15.849,15.849,15.849
	V251.615z"/>
<path style="fill:#FF9900;" d="M467.384,281.789H303.869c-8.753,0-15.849,7.096-15.849,15.849v85.283
	c0,8.753,7.096,15.849,15.849,15.849h192.282c8.753,0,15.849-7.096,15.849-15.849v-56.515
	C512,301.804,491.985,281.789,467.384,281.789z"/>
<path style="fill:#FAD52A;" d="M279.784,159.428H81.018c-8.753,0-15.849,7.096-15.849,15.849v212.66
	c0,8.753,7.096,15.849,15.849,15.849h222.851c8.753,0,15.849-7.096,15.849-15.849V199.362
	C319.718,177.342,301.804,159.428,279.784,159.428z"/>
<path style="fill:#FFEA5E;" d="M192.444,159.428H81.018c-8.753,0-15.849,7.096-15.849,15.849v212.66
	c0,8.753,7.096,15.849,15.849,15.849h111.425V159.428z"/>
<path style="fill:#555559;" d="M421.599,438.846c-28.071,0-50.908-22.838-50.908-50.909c0-28.071,22.837-50.908,50.908-50.908
	c28.071,0,50.909,22.837,50.909,50.908C472.508,416.008,449.67,438.846,421.599,438.846z"/>
<path style="fill:#AEADB3;" d="M421.599,438.846c-28.071,0-50.908-22.838-50.908-50.909c0-28.071,22.837-50.908,50.908-50.908
	V438.846z"/>
<circle style="fill:#FF9900;" cx="421.595" cy="387.933" r="19.209"/>
<path style="fill:#FAD52A;" d="M421.6,368.726c-10.61,0-19.212,8.602-19.212,19.212c0,10.61,8.602,19.212,19.212,19.212V368.726z"/>
<path style="fill:#555559;" d="M170.642,438.846c-28.071,0-50.908-22.838-50.908-50.909c0-28.071,22.837-50.908,50.908-50.908
	s50.909,22.837,50.909,50.908C221.551,416.008,198.713,438.846,170.642,438.846z"/>
<path style="fill:#AEADB3;" d="M170.642,438.846c-28.071,0-50.908-22.838-50.908-50.909c0-28.071,22.837-50.908,50.908-50.908
	V438.846z"/>
<circle style="fill:#FF9900;" cx="170.637" cy="387.933" r="19.209"/>
<path style="fill:#FAD52A;" d="M170.642,368.726c-10.61,0-19.212,8.602-19.212,19.212c0,10.61,8.602,19.212,19.212,19.212V368.726z"
	/>
<g>
	<path style="fill:#CFCDCF;" d="M147.538,268.348H55.256c-8.753,0-15.849-7.096-15.849-15.849s7.096-15.849,15.849-15.849h92.282
		c8.753,0,15.849,7.096,15.849,15.849S156.291,268.348,147.538,268.348z"/>
	<path style="fill:#CFCDCF;" d="M65.79,215.376H15.849C7.096,215.376,0,208.28,0,199.527s7.096-15.849,15.849-15.849H65.79
		c8.753,0,15.849,7.096,15.849,15.849S74.543,215.376,65.79,215.376z"/>
</g>
<path style="fill:#D83249;" d="M147.538,268.348c-53.816,0-97.597-43.782-97.597-97.597c0-53.816,43.782-97.597,97.597-97.597
	s97.597,43.782,97.597,97.597C245.135,224.567,201.353,268.348,147.538,268.348z"/>
<path style="fill:#FF4F59;" d="M147.538,268.348c-53.816,0-97.597-43.782-97.597-97.597c0-53.816,43.782-97.597,97.597-97.597
	V268.348z"/>
<g>
	<circle style="fill:#FFFFFF;" cx="147.54" cy="170.753" r="71.653"/>
	<path style="fill:#FFFFFF;" d="M147.538,242.405c-39.573,0-71.653-32.08-71.653-71.653s32.08-71.653,71.653-71.653V242.405z"/>
</g>
<path style="fill:#555559;" d="M170.568,194.896h-31.325c-8.753,0-15.849-7.096-15.849-15.849v-38.626
	c0-8.753,7.096-15.849,15.849-15.849c8.753,0,15.849,7.096,15.849,15.849v22.778h15.477c8.753,0,15.849,7.096,15.849,15.849
	S179.321,194.896,170.568,194.896z"/>
<path style="fill:#AEADB3;" d="M147.537,194.896h-8.295c-8.753,0-15.849-7.096-15.849-15.849v-38.626
	c0-8.753,7.096-15.849,15.849-15.849c3.043,0,5.886,0.858,8.299,2.345L147.537,194.896z"/>
<g>
</g>
<g>
</g>
<g>
</g>
<g>
</g>
<g>
</g>
<g>
</g>
<g>
</g>
<g>
</g>
<g>
</g>
<g>
</g>
<g>
</g>
<g>
</g>
<g>
</g>
<g>
</g>
<g>
</g>
</svg>
