<?xml version="1.0" encoding="iso-8859-1"?>
<!-- Generator: Adobe Illustrator 19.0.0, SVG Export Plug-In . SVG Version: 6.00 Build 0)  -->
<svg version="1.1" id="Layer_1" xmlns="http://www.w3.org/2000/svg" xmlns:xlink="http://www.w3.org/1999/xlink" x="0px" y="0px"
	 viewBox="0 0 512.001 512.001" style="enable-background:new 0 0 512.001 512.001;" xml:space="preserve">
<ellipse style="fill:#006C71;" cx="256.479" cy="396.276" rx="127.822" ry="21.415"/>
<path style="fill:#00A2A9;" d="M256.475,417.686c-70.596,0-127.825-9.588-127.825-21.415s57.229-21.415,127.825-21.415V417.686z"/>
<path style="fill:#006C71;" d="M255.999,480.403c-65.173,0-126.667-7.121-173.156-20.051C27.873,445.061,0,423.501,0,396.271
	s27.873-48.79,82.845-64.08c46.488-12.931,107.983-20.051,173.156-20.051s126.667,7.121,173.156,20.051
	c54.972,15.29,82.845,36.85,82.845,64.08s-27.873,48.79-82.845,64.08C382.667,473.282,321.172,480.403,255.999,480.403z
	 M255.999,347.952c-62.021,0-120.106,6.656-163.559,18.742c-46.55,12.948-56.626,26.833-56.626,29.577
	c0,2.743,10.076,16.627,56.627,29.576c43.451,12.086,101.539,18.742,163.559,18.742s120.106-6.656,163.559-18.742
	c46.55-12.948,56.627-26.833,56.627-29.576s-10.076-16.627-56.627-29.576C376.107,354.609,318.022,347.952,255.999,347.952z"/>
<path style="fill:#00A2A9;" d="M92.442,366.695c43.451-12.086,101.538-18.742,163.559-18.742v-35.814
	c-65.173,0-126.667,7.121-173.156,20.051C27.873,347.48,0,369.04,0,396.271s27.873,48.79,82.845,64.08
	c46.488,12.93,107.983,20.051,173.156,20.051v-35.814c-62.02,0-120.106-6.656-163.559-18.742
	c-46.552-12.948-56.627-26.833-56.627-29.576S45.89,379.642,92.442,366.695z"/>
<path style="fill:#D83249;" d="M352.076,70.494c-25.636-25.088-59.741-38.896-96.064-38.896c-0.084,0-0.17,0-0.254,0
	c0,0,0,0-0.002,0c-75.197,0.135-136.267,61.423-136.134,136.62c0.054,30.621,19.207,75.52,58.551,137.26
	c27.378,42.961,54.333,77.939,55.467,79.408c5.437,7.038,13.826,11.156,22.715,11.156c0.039,0,0.08,0,0.119,0
	c8.932-0.037,17.34-4.232,22.741-11.346c1.128-1.485,27.944-36.89,55.154-80.282c39.087-62.326,58.06-107.49,58.006-138.073
	C392.312,129.902,378,95.862,352.076,70.494z"/>
<path style="fill:#FF4F59;" d="M256.013,31.599c-0.084,0-0.17,0-0.254,0c0,0,0,0-0.002,0
	c-75.197,0.135-136.267,61.423-136.134,136.62c0.054,30.621,19.207,75.52,58.551,137.26c27.378,42.961,54.333,77.939,55.467,79.408
	c5.437,7.038,13.826,11.156,22.715,11.156c0.039,0,0.08,0,0.119,0C256.475,396.043,255.757,31.599,256.013,31.599z"/>
<circle style="fill:#FAD52A;" cx="256.026" cy="180.219" r="58.807"/>
<path style="fill:#FFEA5E;" d="M256.127,239.026c-32.48,0.057-58.856-26.226-58.914-58.705
	c-0.057-32.479,26.226-58.856,58.705-58.914L256.127,239.026z"/>
<g>
</g>
<g>
</g>
<g>
</g>
<g>
</g>
<g>
</g>
<g>
</g>
<g>
</g>
<g>
</g>
<g>
</g>
<g>
</g>
<g>
</g>
<g>
</g>
<g>
</g>
<g>
</g>
<g>
</g>
</svg>
