<?xml version="1.0"?>
<svg xmlns="http://www.w3.org/2000/svg" id="Layer_1" data-name="Layer 1" viewBox="0 0 512 512" width="512" height="512"><title>Cargo Truck</title><path d="M382,355a17,17,0,0,0-17-17H342a17,17,0,0,0-17,17v4a17,17,0,0,0,17,17h23a17,17,0,0,0,17-17Zm-14,4a3,3,0,0,1-3,3H342a3,3,0,0,1-3-3v-4a3,3,0,0,1,3-3h23a3,3,0,0,1,3,3Z"/><path d="M187,355a17,17,0,0,0-17-17H147a17,17,0,0,0-17,17v4a17,17,0,0,0,17,17h23a17,17,0,0,0,17-17Zm-14,4a3,3,0,0,1-3,3H147a3,3,0,0,1-3-3v-4a3,3,0,0,1,3-3h23a3,3,0,0,1,3,3Z"/><path d="M94,264.9v98.82A11.252,11.252,0,0,0,105,375h6v36.675c0,8.949,6,16.746,14,20.727v26.274C125,474.6,138.076,488,154,488h1.1c12.785,0,23.649-9,27.44-20h5.313C197.79,468,206,457.492,206,444.5V435H306v9.5c0,13,8.212,23.5,18.146,23.5h5.314c3.79,11,14.655,20,27.44,20H358c15.926,0,29-13.4,29-29.324V432.4c8-3.981,14-11.778,14-20.726V375h6a11.252,11.252,0,0,0,11-11.278V264.9a10.71,10.71,0,0,0,10-10.949V184.559a10.709,10.709,0,0,0-10-10.949V71.442C418,45.526,396.918,24,371,24H141c-25.916,0-47,21.526-47,47.442V173.61a10.709,10.709,0,0,0-10,10.949v69.394A10.71,10.71,0,0,0,94,264.9ZM414,188v63H401V188ZM137.387,421c-6.452,0-12.387-4.154-12.387-9.325V402H387v9.675c0,5.171-5.935,9.325-12.387,9.325ZM249,172V275H125V172Zm138,0V275H263V172ZM300,388H212V353.55A30.291,30.291,0,0,1,242.414,323h27.174A30.29,30.29,0,0,1,300,353.55Zm14,0V353.55A44.305,44.305,0,0,0,269.588,309H242.414A44.306,44.306,0,0,0,198,353.55V388H125V289H387v99ZM256,158H126.085a30.211,30.211,0,0,1,30.205-25H355.709a30.211,30.211,0,0,1,30.206,25ZM111,251H98V188h13Zm-3,110V265h3v96Zm47.1,113H154c-8.206,0-15-7.118-15-15.324V435h31v23.676C170,466.882,163.308,474,155.1,474ZM192,444.5c0,5.819-3.249,9.5-4.145,9.5H184V435h8Zm128,0V435h8v19h-3.854C323.25,454,320,450.316,320,444.5ZM358,474h-1.1c-8.206,0-14.9-7.118-14.9-15.324V435h31v23.676C373,466.882,366.207,474,358,474Zm43-113V265h3v96ZM141,38H371c18.2,0,33,15.246,33,33.442V174h-3V163.58c0-24.706-20.584-44.58-45.291-44.58H156.29C131.584,119,111,138.874,111,163.58V174h-3V71.442C108,53.246,122.8,38,141,38Z"/></svg>
