<?xml version="1.0" encoding="utf-8"?>
<!-- Generator: Adobe Illustrator 22.0.1, SVG Export Plug-In . SVG Version: 6.00 Build 0)  -->
<svg version="1.2" baseProfile="tiny" xmlns="http://www.w3.org/2000/svg" xmlns:xlink="http://www.w3.org/1999/xlink" x="0px"
	 y="0px" viewBox="0 0 588.5 588.5" xml:space="preserve">
<g id="Слой_1__x28_копия_x29_">
	<path fill="#B20049" d="M422.1,528.2c-45.4,7.7-96-3.5-143.9-28c-42.8-21.9-82.7-54.2-115.8-92.5s-59-82.5-74.4-128.1
		c-17.2-51-20.8-102.7-6.5-146.5c17.5-53.6,60-90.7,124.8-95.2c78.8-5.4,170,37.8,243,122.4s102.2,181.3,85.3,258.4
		C520.7,482.2,477.7,518.7,422.1,528.2z M93.3,146.7c-27.3,75.4,9,182,73.7,257c64.7,75.1,164.7,126.6,243.4,110.8
		c116.4-23.4,152.6-179.9,18-336.1C293.7,22.3,133.6,35.1,93.3,146.7z"/>
	<g>
		<path fill="#FFE470" d="M242.6,403.7c-2.4,9.3-7.4,18.1-14.6,25.3c-16.7,16.5-78.3,36.2-85.2,38.3c-2.7,0.8-5.8,0-7.9-2.1
			c-2.1-2.1-2.9-5.1-2.1-8.1c2.1-6.7,21.9-68.2,38.4-84.9c7.2-7.2,16-12.2,25.3-14.6l22.9,22.9L242.6,403.7z"/>
		<g>
			<path fill="#FFD400" d="M219.6,380.6l23.1,23c-2.4,9.3-7.4,18.1-14.6,25.3c-16.7,16.5-78.3,36.2-85.2,38.3
				c-2.7,0.8-5.8,0-7.9-2.1L219.6,380.6z"/>
			<path fill="#FFD400" d="M222.3,389.2L199.6,412c-1.6,1.4-3.6,2.2-5.6,2.2c-2.1,0-4.1-0.8-5.8-2.2v-0.2c-3.1-3.2-3.1-8.2,0-11.2
				l22.7-22.6c3.1-3.2,8.1-3.2,11,0h0.2C225.5,381.1,225.5,386.3,222.3,389.2z"/>
		</g>
		<path fill="#FDBF00" d="M222.3,378.1c3.2,3.1,3.2,8.2,0,11.2l-22.6,22.7c-1.6,1.4-3.6,2.2-5.6,2.2c-2.1,0-4.1-0.8-5.8-2.2v-0.2
			l33.8-33.8L222.3,378.1L222.3,378.1z"/>
		<path fill="#4E008E" d="M225.8,273c-56.9,0-74.8,48.1-76.3,49.7c-1.2,2.5-1.2,5.5,0.3,7.8c1.4,2.4,4,3.8,6.8,3.8
			c32.9,2.9,53.4,4.7,51.8,4.6l27.2-65.9H225.8L225.8,273L225.8,273z"/>
		<path fill="#3F007C" d="M261.3,391.7c0.1,1.6,4.1,54.6,3.8,51.1c0,5.9,6.3,9.8,11.6,7.2c1.6-1.4,49.7-19.8,49.7-76.3v-9.9
			L261.3,391.7z"/>
		<path fill="#5600A8" d="M267.9,400.9c-8.5,4.3-17,8.5-25,12.5c-3.1,1.6-6.7,1-9.3-1.4l-45.2-45.2c-2.4-2.6-3.1-6.2-1.4-9.3
			c4-8.1,8.2-16.5,12.5-25c2.6-5,21.1,6,23.7,1l43.7,43.7C261.7,379.7,272.7,398.3,267.9,400.9z"/>
		<path fill="#4E008E" d="M267.9,400.9c-8.5,4.3-17,8.5-25,12.5c-3.1,1.6-6.7,1-9.3-1.4L211,389.3l34.2-34l21.8,21.8
			C261.7,379.7,272.7,398.3,267.9,400.9z"/>
		<path fill="#E2E2E2" d="M399.4,273.7c-7.2,27.5-20.1,50-40.4,69.4c-23.6,22.7-61.2,42.6-91.1,57.7l-34.2-34.1l-34.3-34.3
			c15.1-29.9,34.9-67.8,57.7-91.1c19.4-20.1,41.8-33.2,69.4-40.4l16.2,5.9c0.3,13.9,5.9,26.6,15.1,35.7c9.1,9.1,21.8,14.8,35.7,15.1
			L399.4,273.7z"/>
		<path fill="#CCCCCC" d="M399.4,273.7c-7.2,27.5-20.1,50-40.4,69.4c-23.6,22.7-61.2,42.6-91.1,57.7l-34.2-34.1l124.1-124.1
			c9.1,9.1,21.8,14.8,35.7,15.1L399.4,273.7z"/>
		<path fill="#64B9ED" d="M335.6,264.6c-15.5-15.5-41.1-15.5-56.6,0c-15.5,15.7-15.5,40.9,0,56.6v0.2c15.5,15.5,41.1,15.5,56.6,0
			C351.3,305.7,351.3,280.4,335.6,264.6z"/>
		<path fill="#5600A8" d="M399.4,273.7c-1.2,0-5-0.2-6.2-0.2c-18.4-0.3-34.7-7.7-46.8-19.7c-12-12-19.4-28.4-19.7-46.8
			c0-1.2-0.2-5-0.2-6.2c22.7-5.9,48.3-7.4,71.7-6.4c2.1,0,4,0.8,5.5,2.2s2.2,3.4,2.2,5.5C406.8,225.5,405.1,251,399.4,273.7z"/>
		<path fill="#5A5A5A" d="M267.5,344c-3.1,3.2-8.2,3.2-11.2,0c-3.2-3.1-3.2-8.2,0-11.2c3.1-3.2,8.2-3.2,11.2,0
			C270.7,335.8,270.7,340.9,267.5,344z"/>
		<path fill="#4E008E" d="M399.4,273.7c-1.2,0-5-0.2-6.2-0.2c-18.4-0.3-34.7-7.7-46.8-19.7l57.2-57.2c1.4,1.4,2.2,3.4,2.2,5.5
			C406.8,225.5,405.1,251,399.4,273.7z"/>
		<path fill="#28A4F7" d="M335.6,321.3c-15.5,15.5-41.1,15.5-56.6,0v-0.2l56.6-56.6C351.3,280.4,351.3,305.7,335.6,321.3z"/>
		<path fill="#444444" d="M267.5,344c-3.1,3.2-8.2,3.2-11.2,0l11.2-11.2C270.7,335.8,270.7,340.9,267.5,344z"/>
	</g>
	<path fill="#F20057" d="M52.1,434.8c-7.7-45.4,3.5-96,28-143.9c21.9-42.8,54.2-82.7,92.5-115.8s82.5-59,128.1-74.4
		c51-17.2,102.7-20.8,146.5-6.5c53.6,17.5,90.7,60,95.2,124.8c5.4,78.8-37.8,170-122.4,243s-181.3,102.2-258.4,85.3
		C98.1,533.3,61.5,490.4,52.1,434.8z M433.6,106c-75.4-27.3-182,9-257,73.7C101.5,244.3,49.9,344.3,65.8,423
		c23.4,116.4,179.9,152.6,336.1,18C558,306.4,545.2,146.3,433.6,106z"/>
	<g id="Слой_1">
		<path fill="#F20057" d="M93.3,267.3c1,3.5,2,7,3.1,10.5c-1.9,3.4-3.7,6.8-5.4,10.2c-1-2.8-2-5.7-3-8.5c-0.2-0.7-0.4-1.3-0.7-2
			C89.3,274.1,91.3,270.7,93.3,267.3z"/>
		<path fill="#B20049" d="M294.9,508.1c11.8,5.2,23.8,9.6,35.7,13.1c4.8-2.3,9.6-4.8,14.5-7.4c-12.7-2.4-25.5-6.1-38.3-10.8
			C302.8,504.9,298.9,506.6,294.9,508.1z"/>
		<path fill="#F20057" d="M503.1,306.4c4.5,14.1,7.6,27.8,9.4,41.1c7-13.6,12.8-27.2,17.4-40.8c-3.8-14-8.7-28.2-14.7-42.3
			C512.7,278,508.7,292.1,503.1,306.4z"/>
		<path fill="#B20049" d="M339,100.2c-4-2.5-8.1-4.9-12.1-7.1c13.3-3.2,26.5-5.5,39.5-6.7c5,3.3,10,6.8,15,10.5
			C367.6,96.6,353.4,97.7,339,100.2z"/>
	</g>
</g>
<g id="Слой_1__x28_копия2_x29_" display="none">
	<path display="inline" fill="#B20049" d="M390.6,456.1c-33,5.6-69.7-2.5-104.4-20.3c-31.1-15.9-60-39.3-84-67.1
		c-24-27.8-42.8-59.9-54-93c-12.5-37-15.1-74.5-4.7-106.3c12.7-38.9,43.5-65.8,90.6-69c57.1-3.9,123.3,27.4,176.3,88.8
		s74.1,131.5,61.9,187.5C462.1,422.7,430.9,449.2,390.6,456.1z M152,179.3c-19.8,54.7,6.5,132,53.4,186.5
		c46.9,54.5,119.5,91.8,176.5,80.4c84.4-17,110.7-130.5,13.1-243.8C297.4,89.1,181.3,98.4,152,179.3z"/>
	<g display="inline">
		<path fill="#FFE470" d="M260.4,365.8c-1.7,6.8-5.4,13.2-10.6,18.4c-12.1,12-56.8,26.2-61.8,27.8c-1.9,0.6-4.2,0-5.7-1.5
			c-1.5-1.5-2.1-3.7-1.5-5.8c1.5-4.9,15.9-49.5,27.8-61.6c5.2-5.2,11.6-8.8,18.4-10.6l16.6,16.6L260.4,365.8z"/>
		<g>
			<path fill="#FFD400" d="M243.7,349l16.8,16.7c-1.7,6.8-5.4,13.2-10.6,18.4c-12.1,12-56.8,26.2-61.8,27.8c-1.9,0.6-4.2,0-5.7-1.5
				L243.7,349z"/>
			<path fill="#FFD400" d="M245.6,355.3l-16.4,16.5c-1.2,1-2.6,1.6-4,1.6c-1.5,0-3-0.6-4.2-1.6v-0.1c-2.2-2.3-2.2-5.9,0-8.1
				l16.5-16.4c2.2-2.3,5.8-2.3,8,0h0.1C248,349.4,248,353.1,245.6,355.3z"/>
		</g>
		<path fill="#FDBF00" d="M245.6,347.2c2.3,2.2,2.3,5.9,0,8.1l-16.4,16.5c-1.2,1-2.6,1.6-4,1.6c-1.5,0-3-0.6-4.2-1.6v-0.1l24.5-24.5
			H245.6L245.6,347.2z"/>
		<path fill="#4E008E" d="M248.2,270.9c-41.3,0-54.3,34.9-55.3,36.1c-0.9,1.8-0.8,4,0.2,5.6c1,1.7,2.9,2.8,4.9,2.8
			c23.9,2.1,38.8,3.4,37.6,3.3l19.8-47.8H248.2L248.2,270.9L248.2,270.9z"/>
		<path fill="#3F007C" d="M273.9,357.1c0.1,1.2,3,39.6,2.8,37.1c0,4.3,4.6,7.1,8.4,5.2c1.2-1,36.1-14.3,36.1-55.3v-7.2L273.9,357.1z
			"/>
		<path fill="#5600A8" d="M278.7,363.7c-6.2,3.1-12.3,6.2-18.2,9c-2.2,1.2-4.9,0.7-6.8-1L221,338.9c-1.7-1.9-2.2-4.5-1-6.8
			c2.9-5.8,5.9-12,9-18.2c1.9-3.6,15.3,4.4,17.2,0.7l31.7,31.7C274.2,348.3,282.2,361.8,278.7,363.7z"/>
		<path fill="#4E008E" d="M278.7,363.7c-6.2,3.1-12.3,6.2-18.2,9c-2.2,1.2-4.9,0.7-6.8-1l-16.4-16.4l24.8-24.6l15.8,15.8
			C274.2,348.3,282.2,361.8,278.7,363.7z"/>
		<path fill="#E2E2E2" d="M374.1,271.5c-5.2,20-14.6,36.3-29.3,50.3c-17.1,16.5-44.4,30.9-66.1,41.8l-24.8-24.7L229,314.1
			c10.9-21.7,25.3-49.2,41.8-66.1c14.1-14.6,30.3-24.1,50.3-29.3l11.8,4.3c0.2,10.1,4.3,19.3,10.9,25.9c6.6,6.6,15.8,10.7,25.9,10.9
			L374.1,271.5z"/>
		<path fill="#CCCCCC" d="M374.1,271.5c-5.2,20-14.6,36.3-29.3,50.3c-17.1,16.5-44.4,30.9-66.1,41.8l-24.8-24.7l90-90.1
			c6.6,6.6,15.8,10.7,25.9,10.9L374.1,271.5z"/>
		<path fill="#64B9ED" d="M327.8,264.9c-11.3-11.3-29.8-11.3-41.1,0c-11.3,11.4-11.3,29.6,0,41.1v0.1c11.3,11.3,29.8,11.3,41.1,0
			C339.2,294.7,339.2,276.3,327.8,264.9z"/>
		<path fill="#5600A8" d="M374.1,271.5c-0.9,0-3.6-0.1-4.5-0.1c-13.4-0.2-25.2-5.6-34-14.3c-8.7-8.7-14.1-20.6-14.3-34
			c0-0.9-0.1-3.6-0.1-4.5c16.5-4.3,35-5.4,52-4.7c1.5,0,2.9,0.6,4,1.6c1,1,1.6,2.4,1.6,4C379.4,236.5,378.3,255,374.1,271.5z"/>
		<path fill="#5A5A5A" d="M278.4,322.4c-2.2,2.3-5.9,2.3-8.1,0c-2.3-2.2-2.3-5.9,0-8.1c2.2-2.3,5.9-2.3,8.1,0
			C280.7,316.5,280.7,320.2,278.4,322.4z"/>
		<path fill="#4E008E" d="M374.1,271.5c-0.9,0-3.6-0.1-4.5-0.1c-13.4-0.2-25.2-5.6-34-14.3l41.5-41.5c1,1,1.6,2.4,1.6,4
			C379.4,236.5,378.3,255,374.1,271.5z"/>
		<path fill="#28A4F7" d="M327.8,306c-11.3,11.3-29.8,11.3-41.1,0v-0.1l41.1-41.1C339.2,276.3,339.2,294.7,327.8,306z"/>
		<path fill="#444444" d="M278.4,322.4c-2.2,2.3-5.9,2.3-8.1,0l8.1-8.1C280.7,316.5,280.7,320.2,278.4,322.4z"/>
	</g>
	<path display="inline" fill="#F20057" d="M122.2,388.3c-5.6-33,2.5-69.7,20.3-104.4c15.9-31.1,39.3-60,67.1-84s59.9-42.8,93-54
		c37-12.5,74.5-15.1,106.3-4.7c38.9,12.7,65.8,43.5,69,90.6c3.9,57.1-27.4,123.3-88.8,176.3s-131.5,74.1-187.5,61.9
		C155.5,459.8,129,428.7,122.2,388.3z M398.9,149.8c-54.7-19.8-132,6.5-186.5,53.4c-54.5,46.9-91.8,119.5-80.4,176.5
		c17,84.4,130.5,110.7,243.8,13.1C489.2,295.2,479.9,179.1,398.9,149.8z"/>
	<circle display="inline" fill="none" cx="294.3" cy="294.3" r="229.8"/>
	
		<text transform="matrix(0.9772 -0.2123 0.2123 0.9772 232.3946 72.5067)" display="inline" fill="#4E008E" font-family="'BalooDa2-ExtraBold'" font-size="54.5401px">s</text>
	
		<text transform="matrix(0.9978 -6.675515e-02 6.675515e-02 0.9978 262.7652 66.0365)" display="inline" fill="#4E008E" font-family="'BalooDa2-ExtraBold'" font-size="54.5401px">h</text>
	
		<text transform="matrix(0.996 8.966580e-02 -8.966580e-02 0.996 298.7428 63.9672)" display="inline" fill="#4E008E" font-family="'BalooDa2-ExtraBold'" font-size="54.5401px">u</text>
	
		<text transform="matrix(0.9753 0.2209 -0.2209 0.9753 334.5724 67.82)" display="inline" fill="#4E008E" font-family="'BalooDa2-ExtraBold'" font-size="54.5401px">t</text>
	
		<text transform="matrix(0.9445 0.3285 -0.3285 0.9445 359.7203 73.7514)" display="inline" fill="#4E008E" font-family="'BalooDa2-ExtraBold'" font-size="54.5401px">t</text>
	
		<text transform="matrix(0.9065 0.4223 -0.4223 0.9065 384.356 82.7289)" display="inline" fill="#4E008E" font-family="'BalooDa2-ExtraBold'" font-size="54.5401px">l</text>
	
		<text transform="matrix(0.8499 0.5269 -0.5269 0.8499 402.5107 91.005)" display="inline" fill="#4E008E" font-family="'BalooDa2-ExtraBold'" font-size="54.5401px">e</text>
	<path display="inline" fill="#4E008E" d="M294.3,12c38.1,0,75.1,7.5,109.9,22.2c33.6,14.2,63.8,34.6,89.7,60.5s46.3,56.1,60.5,89.7
		c14.7,34.8,22.2,71.8,22.2,109.9s-7.5,75.1-22.2,109.9c-14.2,33.6-34.6,63.8-60.5,89.7s-56.1,46.3-89.7,60.5
		c-34.8,14.7-71.8,22.2-109.9,22.2s-75.1-7.5-109.9-22.2c-33.6-14.2-63.8-34.6-89.7-60.5s-46.3-56.1-60.5-89.7
		C19.5,369.3,12,332.4,12,294.3s7.5-75.1,22.2-109.9c14.2-33.6,34.6-63.8,60.5-89.7s56.1-46.3,89.7-60.5
		C219.2,19.5,256.1,12,294.3,12 M294.3,0C131.7,0,0,131.7,0,294.3s131.7,294.3,294.3,294.3s294.3-131.7,294.3-294.3S456.8,0,294.3,0
		L294.3,0z"/>
	<circle display="inline" fill="none" cx="294.3" cy="294.3" r="260.3"/>
	
		<text transform="matrix(0.7395 0.6731 -0.6731 0.7395 109.7912 478.3529)" display="inline" fill="#4E008E" font-family="'BalooDa2-ExtraBold'" font-size="61.7804px">r</text>
	
		<text transform="matrix(0.8307 0.5567 -0.5567 0.8307 135.3177 501.1369)" display="inline" fill="#4E008E" font-family="'BalooDa2-ExtraBold'" font-size="61.7804px">e</text>
	
		<text transform="matrix(0.9107 0.4131 -0.4131 0.9107 172.6658 524.9624)" display="inline" fill="#4E008E" font-family="'BalooDa2-ExtraBold'" font-size="61.7804px">s</text>
	
		<text transform="matrix(0.9662 0.2579 -0.2579 0.9662 210.4137 541.2628)" display="inline" fill="#4E008E" font-family="'BalooDa2-ExtraBold'" font-size="61.7804px">e</text>
	
		<text transform="matrix(0.9957 9.311569e-02 -9.311569e-02 0.9957 253.525 551.8445)" display="inline" fill="#4E008E" font-family="'BalooDa2-ExtraBold'" font-size="61.7804px">a</text>
	
		<text transform="matrix(0.9983 -5.896672e-02 5.896672e-02 0.9983 297.0984 554.8415)" display="inline" fill="#4E008E" font-family="'BalooDa2-ExtraBold'" font-size="61.7804px">r</text>
	
		<text transform="matrix(0.9801 -0.1985 0.1985 0.9801 331.0183 552.3988)" display="inline" fill="#4E008E" font-family="'BalooDa2-ExtraBold'" font-size="61.7804px">c</text>
	
		<text transform="matrix(0.933 -0.36 0.36 0.933 370.8113 543.6842)" display="inline" fill="#4E008E" font-family="'BalooDa2-ExtraBold'" font-size="61.7804px">h</text>
	<g id="Слой_1_копия_2" display="inline">
		<path fill="#F20057" d="M152.1,266.9c0.7,2.5,1.4,5.1,2.2,7.6c-1.4,2.5-2.7,4.9-3.9,7.4c-0.8-2.1-1.5-4.1-2.2-6.2
			c-0.2-0.5-0.3-1-0.5-1.5C149.1,271.8,150.6,269.3,152.1,266.9z"/>
		<path fill="#B20049" d="M298.3,441.5c8.6,3.8,17.2,7,25.9,9.5c3.5-1.7,7-3.5,10.5-5.3c-9.2-1.8-18.5-4.4-27.8-7.8
			C304,439.2,301.2,440.4,298.3,441.5z"/>
		<path fill="#F20057" d="M449.3,295.2c3.2,10.2,5.5,20.2,6.8,29.8c5.1-9.8,9.3-19.7,12.6-29.6c-2.7-10.2-6.3-20.4-10.7-30.7
			C456.3,274.6,453.4,284.8,449.3,295.2z"/>
		<path fill="#B20049" d="M330.3,145.6c-2.9-1.8-5.9-3.5-8.8-5.2c9.6-2.3,19.2-4,28.6-4.9c3.6,2.4,7.3,5,10.9,7.6
			C351,143,340.7,143.8,330.3,145.6z"/>
	</g>
</g>
</svg>
