<?xml version="1.0" encoding="utf-8"?>
<!-- Generator: Adobe Illustrator 22.0.1, SVG Export Plug-In . SVG Version: 6.00 Build 0)  -->
<svg version="1.1" id="Слой_1" xmlns="http://www.w3.org/2000/svg" xmlns:xlink="http://www.w3.org/1999/xlink" x="0px" y="0px"
	 viewBox="0 0 404.7 402.2" style="enable-background:new 0 0 404.7 402.2;" xml:space="preserve">
<style type="text/css">
	.st0{fill:#FFE470;}
	.st1{fill:#FFD400;}
	.st2{fill:#FDBF00;}
	.st3{fill:#4E008E;}
	.st4{fill:#3F007C;}
	.st5{fill:#5600A8;}
	.st6{fill:#E2E2E2;}
	.st7{fill:#CCCCCC;}
	.st8{fill:#64B9ED;}
	.st9{fill:#5A5A5A;}
	.st10{fill:#28A4F7;}
	.st11{fill:#444444;}
</style>
<path class="st0" d="M174.3,279.8c-2.5,9.7-7.7,18.9-15.2,26.4c-17.4,17.2-81.6,37.7-88.8,39.9c-2.8,0.8-6,0-8.2-2.2
	c-2.2-2.2-3-5.3-2.2-8.4c2.2-7,22.8-71.1,40-88.5c7.5-7.5,16.7-12.7,26.4-15.2l23.9,23.9L174.3,279.8z"/>
<g>
	<path class="st1" d="M150.3,255.7l24.1,24c-2.5,9.7-7.7,18.9-15.2,26.4c-17.4,17.2-81.6,37.7-88.8,39.9c-2.8,0.8-6,0-8.2-2.2
		L150.3,255.7z"/>
	<path class="st1" d="M153.1,264.7l-23.6,23.7c-1.7,1.5-3.8,2.3-5.8,2.3c-2.2,0-4.3-0.8-6-2.3v-0.2c-3.2-3.3-3.2-8.5,0-11.7
		l23.7-23.6c3.2-3.3,8.4-3.3,11.5,0h0.2C156.5,256.2,156.5,261.6,153.1,264.7z"/>
</g>
<path class="st2" d="M153.1,253.1c3.3,3.2,3.3,8.5,0,11.7l-23.6,23.7c-1.7,1.5-3.8,2.3-5.8,2.3c-2.2,0-4.3-0.8-6-2.3v-0.2l35.2-35.2
	L153.1,253.1L153.1,253.1z"/>
<path class="st3" d="M156.8,143.5c-59.3,0-78,50.1-79.5,51.8c-1.3,2.6-1.2,5.7,0.3,8.1c1.5,2.5,4.2,4,7.1,4c34.3,3,55.7,4.9,54,4.8
	l28.4-68.7L156.8,143.5L156.8,143.5L156.8,143.5z"/>
<path class="st4" d="M193.8,267.3c0.1,1.7,4.3,56.9,4,53.3c0,6.2,6.6,10.2,12.1,7.5c1.7-1.5,51.8-20.6,51.8-79.5v-10.3L193.8,267.3z
	"/>
<path class="st5" d="M200.6,276.8c-8.9,4.5-17.7,8.9-26.1,13c-3.2,1.7-7,1-9.7-1.5l-47.1-47.1c-2.5-2.7-3.2-6.5-1.5-9.7
	c4.2-8.4,8.5-17.2,13-26.1c2.7-5.2,22,6.3,24.7,1l45.6,45.6C194.2,254.7,205.7,274.1,200.6,276.8z"/>
<path class="st3" d="M200.6,276.8c-8.9,4.5-17.7,8.9-26.1,13c-3.2,1.7-7,1-9.7-1.5l-23.5-23.5l35.6-35.4l22.7,22.7
	C194.2,254.7,205.7,274.1,200.6,276.8z"/>
<path class="st6" d="M337.7,144.3c-7.5,28.7-21,52.1-42.1,72.3c-24.6,23.7-63.8,44.4-95,60.1L165,241.2l-35.7-35.7
	c15.7-31.2,36.4-70.7,60.1-95c20.2-21,43.6-34.6,72.3-42.1l16.9,6.2c0.3,14.5,6.2,27.7,15.7,37.2c9.5,9.5,22.7,15.4,37.2,15.7
	L337.7,144.3z"/>
<path class="st7" d="M337.7,144.3c-7.5,28.7-21,52.1-42.1,72.3c-24.6,23.7-63.8,44.4-95,60.1L165,241.2l129.3-129.4
	c9.5,9.5,22.7,15.4,37.2,15.7L337.7,144.3z"/>
<path class="st8" d="M271.2,134.8c-16.2-16.2-42.8-16.2-59,0c-16.2,16.4-16.2,42.6,0,59v0.2c16.2,16.2,42.8,16.2,59,0
	C287.6,177.6,287.6,151.2,271.2,134.8z"/>
<path class="st5" d="M337.7,144.3c-1.3,0-5.2-0.2-6.5-0.2c-19.2-0.3-36.2-8-48.8-20.5c-12.5-12.5-20.2-29.6-20.5-48.8
	c0-1.3-0.2-5.2-0.2-6.5c23.7-6.2,50.3-7.7,74.7-6.7c2.2,0,4.2,0.8,5.7,2.3c1.5,1.5,2.3,3.5,2.3,5.7
	C345.4,94,343.7,120.6,337.7,144.3z"/>
<path class="st9" d="M200.2,217.5c-3.2,3.3-8.5,3.3-11.7,0c-3.3-3.2-3.3-8.5,0-11.7c3.2-3.3,8.5-3.3,11.7,0
	C203.6,209,203.6,214.3,200.2,217.5z"/>
<path class="st3" d="M337.7,144.3c-1.3,0-5.2-0.2-6.5-0.2c-19.2-0.3-36.2-8-48.8-20.5L342,64c1.5,1.5,2.3,3.5,2.3,5.7
	C345.4,94,343.7,120.6,337.7,144.3z"/>
<path class="st10" d="M271.2,193.9c-16.2,16.2-42.8,16.2-59,0v-0.2l59-59C287.6,151.2,287.6,177.6,271.2,193.9z"/>
<path class="st11" d="M200.2,217.5c-3.2,3.3-8.5,3.3-11.7,0l11.7-11.7C203.6,209,203.6,214.3,200.2,217.5z"/>
</svg>
