<?xml version="1.0" encoding="utf-8"?>
<!-- Generator: Adobe Illustrator 22.0.1, SVG Export Plug-In . SVG Version: 6.00 Build 0)  -->
<svg version="1.1" xmlns="http://www.w3.org/2000/svg" xmlns:xlink="http://www.w3.org/1999/xlink" x="0px" y="0px"
	 viewBox="0 0 1576 388" style="enable-background:new 0 0 1576 388;" xml:space="preserve">
<style type="text/css">
	.st0{fill:#FFE470;}
	.st1{fill:#FFD400;}
	.st2{fill:#FDBF00;}
	.st3{fill:#4E008E;}
	.st4{fill:#3F007C;}
	.st5{fill:#5600A8;}
	.st6{fill:#E2E2E2;}
	.st7{fill:#CCCCCC;}
	.st8{fill:#64B9ED;}
	.st9{fill:#5A5A5A;}
	.st10{fill:#28A4F7;}
	.st11{fill:#444444;}
	.st12{display:none;}
	.st13{display:inline;fill:#4E008E;}
	.st14{font-family:'BalooDa2-ExtraBold';}
	.st15{font-size:274.726px;}
</style>
<g id="Слой_3">
</g>
<g id="Слой_1">
	<path class="st0" d="M188.7,271.4c-2.5,9.7-7.7,18.9-15.2,26.4c-17.4,17.2-81.6,37.7-88.8,39.9c-2.8,0.8-6,0-8.2-2.2
		c-2.2-2.2-3-5.3-2.2-8.4c2.2-7,22.8-71.1,40-88.5c7.5-7.5,16.7-12.7,26.4-15.2l23.9,23.9L188.7,271.4z"/>
	<g>
		<path class="st1" d="M164.6,247.4l24.1,24c-2.5,9.7-7.7,18.9-15.2,26.4c-17.4,17.2-81.6,37.7-88.8,39.9c-2.8,0.8-6,0-8.2-2.2
			L164.6,247.4z"/>
		<path class="st1" d="M167.5,256.4l-23.6,23.7c-1.7,1.5-3.8,2.3-5.8,2.3c-2.2,0-4.3-0.8-6-2.3v-0.2c-3.2-3.3-3.2-8.5,0-11.7
			l23.7-23.6c3.2-3.3,8.4-3.3,11.5,0h0.2C170.8,247.9,170.8,253.2,167.5,256.4z"/>
	</g>
	<path class="st2" d="M167.5,244.7c3.3,3.2,3.3,8.5,0,11.7l-23.6,23.7c-1.7,1.5-3.8,2.3-5.8,2.3c-2.2,0-4.3-0.8-6-2.3v-0.2
		l35.2-35.2L167.5,244.7L167.5,244.7z"/>
	<path class="st3" d="M171.1,135.1c-59.3,0-78,50.1-79.5,51.8c-1.3,2.6-1.2,5.7,0.3,8.1c1.5,2.5,4.2,4,7.1,4c34.3,3,55.7,4.9,54,4.8
		l28.4-68.7L171.1,135.1L171.1,135.1L171.1,135.1z"/>
	<path class="st4" d="M208.2,258.9c0.1,1.7,4.3,56.9,4,53.3c0,6.2,6.6,10.2,12.1,7.5c1.7-1.5,51.8-20.6,51.8-79.5v-10.3L208.2,258.9
		z"/>
	<path class="st5" d="M214.9,268.4c-8.9,4.5-17.7,8.9-26.1,13c-3.2,1.7-7,1-9.7-1.5l-47.1-47.1c-2.5-2.7-3.2-6.5-1.5-9.7
		c4.2-8.4,8.5-17.2,13-26.1c2.7-5.2,22,6.3,24.7,1l45.6,45.6C208.6,246.4,220.1,265.7,214.9,268.4z"/>
	<path class="st3" d="M214.9,268.4c-8.9,4.5-17.7,8.9-26.1,13c-3.2,1.7-7,1-9.7-1.5l-23.5-23.5l35.6-35.4l22.7,22.7
		C208.6,246.4,220.1,265.7,214.9,268.4z"/>
	<path class="st6" d="M352,136c-7.5,28.7-21,52.1-42.1,72.3c-24.6,23.7-63.8,44.4-95,60.1l-35.6-35.6l-35.7-35.7
		c15.7-31.2,36.4-70.7,60.1-95c20.2-21,43.6-34.6,72.3-42.1l16.9,6.2c0.3,14.5,6.2,27.7,15.7,37.2c9.5,9.5,22.7,15.4,37.2,15.7
		L352,136z"/>
	<path class="st7" d="M352,136c-7.5,28.7-21,52.1-42.1,72.3c-24.6,23.7-63.8,44.4-95,60.1l-35.6-35.6l129.3-129.4
		c9.5,9.5,22.7,15.4,37.2,15.7L352,136z"/>
	<path class="st8" d="M285.6,126.4c-16.2-16.2-42.8-16.2-59,0c-16.2,16.4-16.2,42.6,0,59v0.2c16.2,16.2,42.8,16.2,59,0
		C301.9,169.2,301.9,142.8,285.6,126.4z"/>
	<path class="st5" d="M352,136c-1.3,0-5.2-0.2-6.5-0.2c-19.2-0.3-36.2-8-48.8-20.5s-20.2-29.6-20.5-48.8c0-1.3-0.2-5.2-0.2-6.5
		c23.7-6.2,50.3-7.7,74.7-6.7c2.2,0,4.2,0.8,5.7,2.3c1.5,1.5,2.3,3.5,2.3,5.7C359.7,85.7,358.1,112.2,352,136z"/>
	<path class="st9" d="M214.6,209.1c-3.2,3.3-8.5,3.3-11.7,0c-3.3-3.2-3.3-8.5,0-11.7c3.2-3.3,8.5-3.3,11.7,0
		C217.9,200.6,217.9,205.9,214.6,209.1z"/>
	<path class="st3" d="M352,136c-1.3,0-5.2-0.2-6.5-0.2c-19.2-0.3-36.2-8-48.8-20.5l59.6-59.6c1.5,1.5,2.3,3.5,2.3,5.7
		C359.7,85.7,358.1,112.2,352,136z"/>
	<path class="st10" d="M285.6,185.6c-16.2,16.2-42.8,16.2-59,0v-0.2l59-59C301.9,142.8,301.9,169.2,285.6,185.6z"/>
	<path class="st11" d="M214.6,209.1c-3.2,3.3-8.5,3.3-11.7,0l11.7-11.7C217.9,200.6,217.9,205.9,214.6,209.1z"/>
	<g>
		<path class="st3" d="M466.5,246.7c9,0,15.3-1.5,19-4.4c3.7-2.9,5.5-6.2,5.5-9.9c0-3.7-1.5-6.5-4.4-8.7c-2.9-2.1-7.1-4.1-12.4-5.9
			l-11.5-3.8c-8.1-2.7-15.4-5.5-22-8.4c-6.6-2.8-12.3-6.3-17-10.3c-4.8-4-8.5-8.8-11.1-14.4c-2.7-5.6-4-12.4-4-20.5
			c0-15.6,6-28,18-37.4c12-9.3,28.8-14,50.4-14c7.9,0,15.2,0.5,22,1.6c6.8,1.1,12.6,2.8,17.4,5.1c4.9,2.3,8.7,5.2,11.4,8.8
			c2.7,3.6,4.1,7.7,4.1,12.5c0,4.8-1.1,8.8-3.3,12.2c-2.2,3.4-4.9,6.3-8,8.7c-4-2.6-9.4-4.8-16.2-6.7c-6.8-1.9-14.2-2.9-22.3-2.9
			c-8.2,0-14.3,1.1-18.1,3.4c-3.8,2.3-5.8,5.2-5.8,8.7c0,2.7,1.2,5,3.6,6.7c2.4,1.7,5.9,3.3,10.7,4.8l14.6,4.7
			c17.2,5.5,30.4,12.6,39.7,21.3c9.2,8.7,13.9,20.4,13.9,35c0,7.7-1.6,14.8-4.7,21.3c-3.1,6.5-7.7,12.1-13.9,16.8
			c-6.1,4.7-13.7,8.3-22.8,10.9s-19.5,3.8-31.2,3.8c-8.4,0-16.3-0.7-23.5-2.1c-7.2-1.4-13.6-3.4-19-6c-5.4-2.7-9.6-5.9-12.6-9.9
			c-3-3.9-4.5-8.5-4.5-13.6c0-5.3,1.6-9.8,4.7-13.6c3.1-3.8,6.5-6.6,10.2-8.7c5.1,4,11.4,7.5,18.8,10.4
			C449.6,245.2,457.7,246.7,466.5,246.7z"/>
		<path class="st3" d="M605.5,282.1c-4.2,0.5-8.5,0.8-12.9,0.8c-9.7,0-16.4-1.6-20.2-4.9c-3.8-3.3-5.6-9.2-5.6-17.9V113.7
			c2.2-0.4,5.4-0.9,9.6-1.5c4.2-0.6,8.4-1,12.6-1c9.2,0,15.7,1.6,19.8,4.7c4,3.1,6,9.2,6,18.1v44.5h52.7v-64.8
			c2.2-0.4,5.4-0.9,9.6-1.5c4.2-0.6,8.4-1,12.6-1c9.2,0,15.7,1.6,19.8,4.9c4,3.3,6,9.4,6,18.4v145.9c-2,0.5-5.1,1.1-9.3,1.6
			c-4.2,0.5-8.5,0.8-12.9,0.8c-9.7,0-16.4-1.6-20.2-4.9c-3.8-3.3-5.6-9.2-5.6-17.9v-43.7h-52.7v64
			C612.8,281,609.7,281.6,605.5,282.1z"/>
		<path class="st3" d="M824.7,285.7c-11.5,0-21.9-1.6-31-4.7c-9.2-3.1-16.9-7.6-23.4-13.3c-6.4-5.8-11.3-12.7-14.7-20.9
			c-3.4-8.1-5.1-17.2-5.1-27.1v-106c2.2-0.4,5.4-0.9,9.6-1.5c4.2-0.6,8.4-1,12.6-1c9.2,0,15.7,1.6,19.8,4.7c4,3.1,6,9.2,6,18.1v84.9
			c0,8.8,2.4,15.7,7.3,20.6c4.9,4.9,11.1,7.4,18.8,7.4s14-2.5,18.8-7.4c4.9-4.9,7.3-11.8,7.3-20.6V113.7c2.2-0.4,5.4-0.9,9.6-1.5
			c4.2-0.6,8.4-1,12.6-1c9.2,0,15.8,1.6,19.8,4.7c4,3.1,6,9.2,6,18.1v85.7c0,9.9-1.7,18.9-5.1,27.1c-3.4,8.2-8.3,15.1-14.7,20.9
			c-6.4,5.8-14.2,10.2-23.4,13.3C846.6,284.1,836.3,285.7,824.7,285.7z"/>
		<path class="st3" d="M1061.7,122.2c1,3.3,1.5,6.9,1.5,10.7c0,7-1.5,12-4.5,15.1c-3,3.1-7.1,4.7-12.2,4.7h-31v127.7
			c-2,0.5-5.1,1.1-9.3,1.6c-4.2,0.5-8.5,0.8-12.9,0.8c-9.7,0-16.4-1.6-20.2-4.9c-3.8-3.3-5.6-9.2-5.6-17.9V152.7h-41.5
			c-1.3-2-2.4-4.7-3.4-8c-1-3.3-1.5-6.9-1.5-10.7c0-7,1.5-12,4.5-15.1c3-3.1,7.1-4.7,12.2-4.7h120.6
			C1059.5,116.3,1060.7,118.9,1061.7,122.2z"/>
		<path class="st3" d="M1217.2,122.2c1,3.3,1.5,6.9,1.5,10.7c0,7-1.5,12-4.5,15.1c-3,3.1-7.1,4.7-12.2,4.7h-31v127.7
			c-2,0.5-5.1,1.1-9.3,1.6c-4.2,0.5-8.5,0.8-12.9,0.8c-9.7,0-16.4-1.6-20.2-4.9c-3.8-3.3-5.6-9.2-5.6-17.9V152.7h-41.5
			c-1.3-2-2.4-4.7-3.4-8c-1-3.3-1.5-6.9-1.5-10.7c0-7,1.5-12,4.5-15.1c3-3.1,7.1-4.7,12.2-4.7h120.6
			C1215,116.3,1216.2,118.9,1217.2,122.2z"/>
		<path class="st3" d="M1248.9,274.7c-4.6-4.6-6.9-10.8-6.9-18.7V113.7c2.2-0.4,5.4-0.9,9.6-1.5c4.2-0.6,8.4-1,12.6-1
			c9.2,0,15.7,1.6,19.8,4.7c4,3.1,6,9.2,6,18.1v108.8h62.9c1.3,2,2.5,4.7,3.6,8s1.6,6.9,1.6,10.7c0,6.8-1.5,11.8-4.4,15.1
			c-2.9,3.3-7,4.9-12.1,4.9h-74.2C1259.7,281.6,1253.5,279.3,1248.9,274.7z"/>
		<path class="st3" d="M1389.8,274.7c-4.6-4.6-6.9-10.8-6.9-18.7V139.8c0-7.9,2.3-14.1,6.9-18.7c4.6-4.6,10.8-6.9,18.7-6.9h90.7
			c1.3,2,2.4,4.6,3.4,7.7c1,3.1,1.5,6.6,1.5,10.4c0,6.8-1.5,11.7-4.4,14.8c-2.9,3.1-7,4.7-12.1,4.7h-58v25.5h61.8
			c1.3,2,2.4,4.6,3.4,7.7c1,3.1,1.5,6.6,1.5,10.4c0,6.8-1.5,11.7-4.4,14.7c-2.9,3-7,4.5-12.1,4.5h-50.3v28.8h70.6
			c1.3,2,2.4,4.7,3.4,8c1,3.3,1.5,6.9,1.5,10.7c0,6.8-1.5,11.7-4.4,14.7c-2.9,3-7,4.5-12.1,4.5h-80.2
			C1400.7,281.6,1394.4,279.3,1389.8,274.7z"/>
	</g>
</g>
<g id="Слой_2" class="st12">
	<text transform="matrix(1 0 0 1 242.5479 567.7412)" class="st13 st14 st15">SHUTTLE</text>
</g>
</svg>
