<?xml version="1.0" encoding="utf-8"?>
<!-- Generator: Adobe Illustrator 22.0.1, SVG Export Plug-In . SVG Version: 6.00 Build 0)  -->
<svg version="1.1" id="Layer_1" xmlns="http://www.w3.org/2000/svg" xmlns:xlink="http://www.w3.org/1999/xlink" x="0px" y="0px"
	 viewBox="0 0 512 512" style="enable-background:new 0 0 512 512;" xml:space="preserve">
<style type="text/css">
	.st0{fill:#FFDC64;}
	.st1{fill:#FFC850;}
	.st2{fill:#E1A546;}
	.st3{fill:#2196F3;}
	.st4{fill:#1769AA;}
	.st5{fill:#5B5D6E;}
	.st6{fill:#B4E6FF;}
	.st7{fill:#C7CFE2;}
	.st8{fill:#7F8499;}
	.st9{fill:#9BD6FF;}
	.st10{fill:#F1F4FB;}
	.st11{fill:#FF8C66;}
	.st12{fill:#FFFFFF;}
</style>
<path class="st0" d="M477.3,238.6H373.2v121.5h130.2c4.8,0,8.7-3.9,8.7-8.7v-78.1C512,254.2,496.5,238.6,477.3,238.6z"/>
<path class="st1" d="M373.2,256h104.1c9.6,0,17.4,7.8,17.4,17.4v86.8H373.2V256z"/>
<path class="st2" d="M494,360.1c-4.2-29.4-29.5-52.1-60.1-52.1s-55.8,22.6-60.1,52.1H494z"/>
<path class="st0" d="M442.6,134.5h-69.4v34.7h91.1c2.4,0,4.3-1.9,4.3-4.3v-4.3C468.6,146.2,457,134.5,442.6,134.5z"/>
<path class="st3" d="M364.5,99.8H52.1c-4.8,0-8.7,3.9-8.7,8.7V282H26c-4.8,0-8.7,3.9-8.7,8.7c0,4.8,3.9,8.7,8.7,8.7h52.1
	c4.8,0,8.7,3.9,8.7,8.7c0,4.8-3.9,8.7-8.7,8.7H43.4v34.7c0,4.8,3.9,8.7,8.7,8.7h321.1V108.5C373.2,103.7,369.3,99.8,364.5,99.8z"/>
<path class="st4" d="M178.5,316.7c-9.1-5.4-19.6-8.7-31-8.7s-21.9,3.3-31,8.7H8.7c-4.8,0-8.7,3.9-8.7,8.7c0,4.8,3.9,8.7,8.7,8.7
	h34.7v17.4c0,4.8,3.9,8.7,8.7,8.7h321.1v-43.4L178.5,316.7L178.5,316.7z"/>
<g>
	<circle class="st5" cx="433.9" cy="368.8" r="43.4"/>
	<circle class="st5" cx="147.5" cy="368.8" r="43.4"/>
</g>
<polygon class="st6" points="477.3,238.6 459.9,169.2 373.2,169.2 373.2,238.6 "/>
<circle class="st7" cx="147.5" cy="368.8" r="26"/>
<circle class="st8" cx="147.5" cy="368.8" r="8.7"/>
<circle class="st7" cx="433.9" cy="368.8" r="26"/>
<circle class="st8" cx="433.9" cy="368.8" r="8.7"/>
<path class="st9" d="M407.9,186.6h56.4l-4.3-17.4h-86.8v69.4h26v-43.4C399.2,190.5,403.1,186.6,407.9,186.6z"/>
<path class="st1" d="M373.2,151.9h69.4c4.8,0,8.7,3.9,8.7,8.7v8.7h-78.1L373.2,151.9L373.2,151.9z"/>
<rect x="486" y="273.4" class="st10" width="26" height="34.7"/>
<path class="st11" d="M468.6,273.4v17.4c0,9.6,7.8,17.4,17.4,17.4h8.7v-34.7L468.6,273.4L468.6,273.4z"/>
<path class="st12" d="M199.6,266.8c-2.8,0-5.6-1.1-7.7-3.2l-52.1-52.1c-4.2-4.2-4.2-11.1,0-15.3s11.1-4.2,15.3,0l44.4,44.4
	l79.1-79.1c4.2-4.2,11.1-4.2,15.3,0c4.2,4.2,4.2,11.1,0,15.3l-86.8,86.8C205.1,265.8,202.4,266.8,199.6,266.8z"/>
</svg>
