<?xml version="1.0"?>
<svg xmlns="http://www.w3.org/2000/svg" viewBox="0 0 64 64" width="512" height="512"><g id="Crate"><path d="M61,2H3A1,1,0,0,0,2,3V61a1,1,0,0,0,1,1H61a1,1,0,0,0,1-1V3A1,1,0,0,0,61,2ZM12,18.725l7,7V52H12Zm9,9,6,6V52H21Zm8,8,6,6V52H29Zm8,8L45.266,52H37ZM48.094,52,12,15.9V12h4.586L52,47.414V52ZM52,44.586l-7-7V12h7Zm-9-9-6-6V12h6Zm-8-8-6-6V12h6Zm-8-8L19.414,12H27ZM52.586,10H11.414l-6-6H58.586ZM10,11.414V52.586l-6,6V5.414ZM11.414,54H52.586l6,6H5.414ZM54,52.586V11.414l6-6V58.586Z"/><rect x="11" y="6" width="2" height="2"/><rect x="50" y="6" width="2" height="2"/><rect x="11" y="56" width="2" height="2"/><rect x="51" y="56" width="2" height="2"/><rect x="6" y="11" width="2" height="2"/><rect x="6" y="51" width="2" height="2"/><rect x="56" y="11" width="2" height="2"/><rect x="56" y="51" width="2" height="2"/></g></svg>
