<svg height="512" viewBox="0 0 512 512" width="512" xmlns="http://www.w3.org/2000/svg"><g id="Out_line" data-name="Out line"><path d="m488 120h-464a8.00008 8.00008 0 0 0 -8 8v256a8.00008 8.00008 0 0 0 8 8h464a8.00008 8.00008 0 0 0 8-8v-256a8.00008 8.00008 0 0 0 -8-8zm-456 16h208v240h-208zm224 0h104v240h-16v-224h-16v176h-32v16h32v32h-72zm224 240h-72v-32h32v-16h-32v-176h-16v224h-16v-240h104z"/><path d="m48 152h16v208h-16z"/><path d="m80 152h16v208h-16z"/><path d="m112 152h16v208h-16z"/><path d="m144 152h16v208h-16z"/><path d="m176 152h16v208h-16z"/><path d="m208 152h16v208h-16z"/></g></svg>