<?xml version="1.0"?>
<svg xmlns="http://www.w3.org/2000/svg" width="512" height="512" viewBox="0 0 512 512"><g><path d="M224,80H152a8,8,0,0,0,0,16h72a8,8,0,0,0,0-16Z"/><path d="M256,80h-8a8,8,0,0,0,0,16h8a8,8,0,0,0,0-16Z"/><path d="M432,82.33c0-24.45-37.74-67.21-42.05-72.01a8,8,0,0,0-11.9,0c-1.8,2-9.38,10.59-17.63,21.68H288V16a8,8,0,0,0-8-8H232a8,8,0,0,0-8,8V32H112a8,8,0,0,0-8,8V64a8,8,0,0,0,8,8h8V176h-8a8,8,0,0,0-8,8v24a8,8,0,0,0,8,8h8V320h-8a8,8,0,0,0-8,8v24a8,8,0,0,0,8,8h8V464h-8a8,8,0,0,0-8,8v24a8,8,0,0,0,8,8H400a8,8,0,0,0,8-8V472a8,8,0,0,0-8-8h-8V360h8a8,8,0,0,0,8-8V328a8,8,0,0,0-8-8h-8V216h8a8,8,0,0,0,8-8V184a8,8,0,0,0-8-8h-8V129.65A48.069,48.069,0,0,0,432,82.33Zm-56,47.32V176H136V72H337.76A36.335,36.335,0,0,0,336,82.33,48.069,48.069,0,0,0,376,129.65ZM240,24h32v8H240ZM120,48H349.45c-1.65,2.65-3.23,5.33-4.69,8H120ZM392,488H120v-8H392ZM136,464V360H376V464ZM392,344H120v-8H392ZM136,320V216H376V320ZM392,200H120v-8H392Zm-7.96-85.67h-.08a32.034,32.034,0,0,1-31.96-32c0-3.71,1.68-8.68,4.43-14.27a9.17,9.17,0,0,0,.52-1.04,175.962,175.962,0,0,1,13.68-21.87,7.925,7.925,0,0,0,.68-.93c4.18-5.78,8.58-11.38,12.69-16.31C398.27,45,416,70.24,416,82.33A32.034,32.034,0,0,1,384.04,114.33Z"/></g></svg>
