<?xml version="1.0" encoding="utf-8"?>
<!-- Generator: Adobe Illustrator 22.0.1, SVG Export Plug-In . SVG Version: 6.00 Build 0)  -->
<svg version="1.1" id="Слой_1" xmlns="http://www.w3.org/2000/svg" xmlns:xlink="http://www.w3.org/1999/xlink" x="0px" y="0px"
	 viewBox="0 0 512 512" style="enable-background:new 0 0 512 512;" xml:space="preserve">
<path d="M433.9,136.5H319.4c12.1-14.4,19.3-33,19.3-53.3c0-45.9-37.4-83.3-83.3-83.3c-45.9,0-83.3,37.4-83.3,83.3
	c0,20.2,7.3,38.8,19.3,53.3H77.2L6,512h499L433.9,136.5z M255.5,30c29.4,0,53.3,23.9,53.3,53.3c0,29.4-23.9,53.3-53.3,53.3
	c-29.4,0-53.3-23.9-53.3-53.3C202.2,53.9,226.1,30,255.5,30z M102,166.5h307L468.8,482H42.2L102,166.5z"/>
<g>
	<path d="M203.8,260.7l1.1,13.8c8.7-11,20.3-16.6,34.6-16.6c14.9,0,25.4,6.7,31.6,20.1c8.6-13.4,20.7-20.1,36.6-20.1
		c26.1,0,39.5,18.1,40.1,54.2V410h-39v-95.3c0-8.6-1.2-14.8-3.6-18.5c-2.4-3.7-6.4-5.5-12.1-5.5c-7.3,0-12.7,4.5-16.3,13.4l0.3,4.7
		V410h-39v-95.1c0-8.6-1.2-14.7-3.4-18.6c-2.3-3.8-6.4-5.7-12.3-5.7c-6.7,0-12,3.6-16,10.9V410h-39V260.7H203.8z"/>
</g>
</svg>
