<?xml version="1.0" encoding="UTF-8" standalone="no"?>
<!-- Created with Inkscape (http://www.inkscape.org/) -->
<svg
   xmlns:svg="http://www.w3.org/2000/svg"
   xmlns="http://www.w3.org/2000/svg"
   version="1.0"
   width="1133.8583"
   height="319.25195"
   id="svg2">
  <defs
     id="defs4" />
  <g
     transform="translate(295.79668,-261.14088)"
     id="layer1">
    <g
       transform="translate(35.433078,35.395382)"
       id="g2567">
      <path
         d="M -4044.2911,-1937.5265 L -4044.2911,-1937.5265"
         id="path2396"
         style="fill:#ffffff;fill-opacity:1;fill-rule:nonzero;stroke:none" />
      <path
         d="M 718.24657,339.72996 C 739.12229,343.70666 752.08397,344.88786 767.19544,345.97456 L 767.19544,430.91849 C 763.59672,429.31994 759.97438,428.28836 756.78514,427.36702 C 751.29651,425.78422 679.519,405.12112 664.88789,400.9003 C 685.64549,380.60731 705.04077,356.21949 718.24657,339.72996 M 710.21442,506.34196 C 717.01025,477.99319 722.67213,465.85835 726.30234,460.0626 L 726.46771,459.83423 L 738.86242,453.67625 C 725.42826,454.75508 708.9466,454.70783 689.81906,454.19598 C 657.3361,453.31402 635.53904,448.08525 624.4909,444.22666 C 624.4909,444.22666 634.26335,433.95811 645.31149,418.81514 C 639.56299,424.20141 633.60188,429.77667 627.45177,434.6747 C 589.14944,465.01576 550.52424,486.39545 518.72638,498.44368 L 518.72638,509.60207 L 709.23009,509.60207 L 710.21442,506.34196 M 737.27962,509.60207 L 767.19544,509.60207 L 767.19544,460.7162 L 737.27962,509.60207"
         id="path2408"
         style="fill:#003258;fill-opacity:1;fill-rule:nonzero;stroke:none" />
      <path
         d="M 733.41316,261.14088 L 767.19544,261.14088 L 767.19544,324.19326 C 766.85683,324.02002 766.54184,323.86253 766.20323,323.69716 C 755.38345,318.57076 745.62675,315.05866 731.99572,311.54656 L 725.18414,322.55533 C 702.56813,319.40547 662.03727,279.37859 643.05934,272.40951 C 630.87725,267.94458 616.80523,264.33012 601.68589,261.14088 L 690.96088,261.14088 C 695.75655,270.80308 701.52867,279.39434 709.81281,285.65469 C 712.10434,287.65485 715.72668,289.8755 716.97875,290.34011 C 718.89229,291.04883 720.88458,290.35586 721.55393,288.67856 L 721.5618,288.67856 L 733.41316,261.14088 M 581.49527,402.06575 C 601.34728,387.57638 617.39583,385.68646 617.39583,385.68646 L 621.15204,391.34834 C 623.75068,387.51338 625.90046,382.009 627.76676,375.5124 C 631.83008,356.45573 634.86182,325.0201 637.75182,300.9709 C 612.9939,303.3018 597.87456,285.22946 540.78329,261.14088 L 518.72638,261.14088 L 518.72638,460.64533 C 525.13635,456.0229 531.80618,450.9595 541.68888,441.0768 C 550.11476,432.65092 564.66713,414.35021 581.49527,402.06575"
         id="path2412"
         style="fill:#008fc6;fill-opacity:1;fill-rule:nonzero;stroke:none" />
      <path
         d="M 25.386967,343.62004 L 45.78233,343.62004 C 66.287938,343.62004 82.635726,356.29824 82.635726,377.59131 C 82.635726,400.76643 68.563714,412.75953 45.78233,412.75953 L 25.386967,412.75953 L 25.386967,343.62004 z M 35.285411,404.03441 L 45.687834,404.03441 C 62.720718,404.03441 72.130933,395.81327 72.130933,377.98504 C 72.130933,361.84987 61.137912,352.33729 46.876907,352.33729 L 35.285411,352.33729 L 35.285411,404.03441"
         id="path2416"
         style="fill:#003258;fill-opacity:1;fill-rule:nonzero;stroke:none" />
      <path
         d="M 93.132645,426.42994 C 94.321718,426.80792 95.89665,427.20953 97.479456,427.20953 C 105.80297,427.20953 108.58272,415.72041 108.58272,414.7282 C 108.58272,413.6415 107.38577,411.06648 106.79518,409.38918 L 89.659921,362.24361 L 99.857602,362.24361 L 113.43351,404.03441 L 113.63038,404.03441 L 127.49765,362.24361 L 136.90787,362.24361 L 118.29218,413.83836 C 114.81945,423.54782 111.15774,434.72983 98.865396,434.72983 C 95.89665,434.72983 94.219348,434.3361 92.534171,434.05261 L 93.132645,426.42994"
         id="path2420"
         style="fill:#003258;fill-opacity:1;fill-rule:nonzero;stroke:none" />
      <path
         d="M 146.12121,362.24361 L 155.12982,362.24361 L 155.12982,370.26789 L 155.32668,370.26789 C 158.09069,364.51151 164.8314,361.05454 171.86347,361.05454 C 184.9354,361.05454 190.77839,369.17331 190.77839,382.74134 L 190.77839,412.75954 L 181.47055,412.75954 L 181.47055,386.59993 C 181.47055,374.81156 178.89553,369.07881 170.76889,368.58271 C 160.1696,368.58271 155.42118,377.09521 155.42118,389.3718 L 155.42118,412.75954 L 146.12121,412.75954 L 146.12121,362.24361"
         id="path2424"
         style="fill:#003258;fill-opacity:1;fill-rule:nonzero;stroke:none" />
      <path
         d="M 207.21281,365.80295 C 211.88248,363.03895 217.41837,361.05453 223.85984,361.05453 C 238.31771,361.05453 244.1607,368.18897 244.1607,381.95387 L 244.1607,402.84534 C 244.1607,408.59384 244.35757,411.26335 244.55444,412.75953 L 235.84506,412.75953 L 235.84506,406.21569 L 235.64032,406.21569 C 233.46692,409.28681 228.51376,413.94073 220.00125,413.94073 C 209.10273,413.94073 201.47218,409.19231 201.47218,398.19142 C 201.47218,385.51322 215.34733,381.56014 224.95441,381.56014 C 228.61613,381.56014 231.19114,381.56014 234.85286,381.74913 C 234.85286,373.03189 231.68725,368.5827 222.3794,368.5827 C 217.11913,368.5827 211.48087,370.55924 207.70891,373.73273 L 207.21281,365.80295 z M 234.85286,388.67883 C 232.86844,388.67883 230.8919,388.48196 228.90749,388.48196 C 223.85984,388.48196 211.3785,389.2773 211.3785,398.19142 C 211.3785,403.54618 216.52853,406.42043 220.78872,406.42043 C 230.00207,406.42043 234.85286,400.67193 234.85286,393.14376 L 234.85286,388.67883"
         id="path2428"
         style="fill:#003258;fill-opacity:1;fill-rule:nonzero;stroke:none" />
      <path
         d="M 257.8311,362.24361 L 266.54835,362.24361 L 266.54835,369.57492 L 266.72946,369.57492 C 270.30456,363.73192 275.35221,361.05454 282.78589,361.05454 C 288.62889,361.05454 294.47188,364.02328 297.13352,370.85061 C 300.60624,363.62168 308.24466,361.05454 312.79621,361.05454 C 325.65552,361.05454 330.33307,369.37805 330.33307,380.37107 L 330.33307,412.75954 L 321.01735,412.75954 L 321.01735,382.64685 C 321.01735,376.40224 319.52117,368.58271 312.01662,368.58271 C 302.50403,368.58271 298.73995,377.89055 298.73995,387.30864 L 298.73995,412.75954 L 289.42423,412.75954 L 289.42423,382.64685 C 289.42423,376.40224 287.93592,368.58271 280.40774,368.58271 C 270.91091,368.58271 267.13895,377.89055 267.13895,387.30864 L 267.13895,412.75954 L 257.8311,412.75954 L 257.8311,362.24361"
         id="path2432"
         style="fill:#003258;fill-opacity:1;fill-rule:nonzero;stroke:none" />
      <path
         d="M 343.60187,340.45443 L 354.09879,340.45443 L 354.09879,350.95135 L 343.60187,350.95135 L 343.60187,340.45443 z M 344.19247,362.24361 L 353.48457,362.24361 L 353.48457,412.75953 L 344.19247,412.75953 L 344.19247,362.24361 z"
         id="path2434"
         style="fill:#003258;fill-opacity:1;fill-rule:nonzero;stroke:none" />
      <path
         d="M 401.6381,370.75611 C 398.07088,369.27567 394.51154,368.5827 391.52704,368.5827 C 381.13249,368.5827 375.2895,377.89055 375.2895,387.49763 C 375.2895,396.51411 380.14029,406.42043 392.11764,406.42043 C 395.29113,406.42043 399.25208,405.42035 402.11845,403.54618 L 402.8193,411.86182 C 398.96859,413.64149 394.51154,413.94073 391.14118,413.94073 C 375.88797,413.94073 365.39105,401.94763 365.39105,387.49763 C 365.39105,372.14205 375.69898,361.05453 391.14118,361.05453 C 394.90527,361.05453 399.75606,361.94437 402.42557,363.03895 L 401.6381,370.75611"
         id="path2438"
         style="fill:#003258;fill-opacity:1;fill-rule:nonzero;stroke:none" />
      <path
         d="M 413.41858,402.84534 C 417.08817,405.22349 422.33269,406.42043 425.01008,406.42043 C 429.26239,406.42043 434.50691,404.63289 434.50691,399.18362 C 434.50691,389.9624 412.63899,390.77349 412.63899,376.60698 C 412.63899,366.10219 420.44277,361.05453 430.45146,361.05453 C 434.80615,361.05453 438.38124,361.94437 442.03508,363.03895 L 441.23974,371.15772 C 439.16084,369.87415 433.62495,368.58271 431.42792,368.58271 C 426.6795,368.58271 422.52956,370.55924 422.52956,374.71706 C 422.52956,385.01712 444.42111,382.0405 444.42111,398.19142 C 444.42111,408.9797 435.79836,413.94073 426.78975,413.94073 C 422.03346,413.94073 417.19054,413.44463 412.92248,411.16098 L 413.41858,402.84534"
         id="path2442"
         style="fill:#003258;fill-opacity:1;fill-rule:nonzero;stroke:none" />
      <path
         d="M -295.79668,343.62004 L -277.07862,343.62004 C -262.71524,343.62004 -252.82467,348.28184 -252.82467,361.05453 C -252.82467,370.55924 -258.36056,375.31554 -267.08568,377.48894 L -267.08568,377.69368 C -257.66759,378.48115 -251.02925,384.62338 -251.02925,394.33283 C -251.02925,409.19231 -263.31372,412.75953 -277.36998,412.75953 L -295.79668,412.75953 L -295.79668,343.62004 z M -285.89824,373.13426 L -280.4411,373.13426 C -270.84977,373.13426 -262.71524,372.24442 -262.71524,362.04674 C -262.71524,353.81772 -269.74731,351.73881 -275.49581,351.73881 L -285.89824,351.73881 L -285.89824,373.13426 z M -285.89824,404.63289 L -278.46456,404.63289 C -269.55045,404.63289 -261.52617,402.74297 -261.52617,393.443 C -261.52617,382.74134 -270.93639,381.25303 -279.45677,381.25303 L -285.89824,381.25303 L -285.89824,404.63289"
         id="path2446"
         style="fill:#008fc6;fill-opacity:1;fill-rule:nonzero;stroke:none" />
      <path
         d="M -217.15248,361.05453 C -201.80477,361.05453 -191.5126,372.14205 -191.5126,387.49763 C -191.5126,401.94763 -202.00951,413.94073 -217.15248,413.94073 C -232.41357,413.94073 -242.91048,401.94763 -242.91048,387.49763 C -242.91048,372.14205 -232.61043,361.05453 -217.15248,361.05453 z M -217.15248,406.42043 C -206.2697,406.42043 -201.41891,396.51411 -201.41891,387.49763 C -201.41891,377.89055 -207.25404,368.5827 -217.15248,368.5827 C -227.16117,368.5827 -233.00417,377.89055 -233.00417,387.49763 C -233.00417,396.51411 -228.15338,406.42043 -217.15248,406.42043"
         id="path2450"
         style="fill:#008fc6;fill-opacity:1;fill-rule:nonzero;stroke:none" />
      <path
         d="M -182.29925,402.84534 C -178.63753,405.22349 -173.38514,406.42043 -170.71563,406.42043 C -166.45544,406.42043 -161.21092,404.63289 -161.21092,399.18362 C -161.21092,389.9624 -183.08672,390.77349 -183.08672,376.60698 C -183.08672,366.10219 -175.25931,361.05453 -165.26637,361.05453 C -160.90381,361.05453 -157.33659,361.94437 -153.67487,363.03895 L -154.47021,371.15772 C -156.54912,369.87415 -162.10075,368.58271 -164.27416,368.58271 C -169.03045,368.58271 -173.18827,370.55924 -173.18827,374.71706 C -173.18827,385.01712 -151.3046,382.0405 -151.3046,398.19142 C -151.3046,408.9797 -159.9116,413.94073 -168.92808,413.94073 C -173.68437,413.94073 -178.54304,413.44463 -182.80323,411.16098 L -182.29925,402.84534"
         id="path2454"
         style="fill:#008fc6;fill-opacity:1;fill-rule:nonzero;stroke:none" />
      <path
         d="M -110.19888,369.7639 L -123.57005,369.7639 L -123.57005,397.39607 C -123.57005,403.24694 -120.0107,406.42043 -115.75051,406.42043 C -112.87626,406.42043 -110.79735,405.52272 -109.41141,404.63288 L -109.41141,412.54691 C -111.49032,413.14539 -114.37245,413.94073 -117.33332,413.94073 C -126.9404,413.94073 -132.87789,409.38918 -132.87789,399.27812 L -132.87789,369.7639 L -144.26465,369.7639 L -144.26465,362.2436 L -132.87789,362.2436 L -132.87789,350.55761 L -123.57005,347.58099 L -123.57005,362.2436 L -110.19888,362.2436 L -110.19888,369.7639"
         id="path2458"
         style="fill:#008fc6;fill-opacity:1;fill-rule:nonzero;stroke:none" />
      <path
         d="M -76.133116,361.05453 C -60.777534,361.05453 -50.477482,372.14205 -50.477482,387.49763 C -50.477482,401.94763 -60.982275,413.94073 -76.133116,413.94073 C -91.378453,413.94073 -101.87537,401.94763 -101.87537,387.49763 C -101.87537,372.14205 -91.583194,361.05453 -76.133116,361.05453 z M -76.133116,406.42043 C -65.242465,406.42043 -60.383801,396.51411 -60.383801,387.49763 C -60.383801,377.89055 -66.226797,368.5827 -76.133116,368.5827 C -86.133931,368.5827 -91.984801,377.89055 -91.984801,387.49763 C -91.984801,396.51411 -87.126138,406.42043 -76.133116,406.42043"
         id="path2462"
         style="fill:#008fc6;fill-opacity:1;fill-rule:nonzero;stroke:none" />
      <path
         d="M -39.689202,362.24361 L -30.680594,362.24361 L -30.680594,370.26789 L -30.475853,370.26789 C -27.696099,364.51151 -20.971141,361.05454 -13.939072,361.05454 C -0.85926636,361.05454 4.9837294,369.17331 4.9837294,382.74134 L 4.9837294,412.75954 L -4.3319903,412.75954 L -4.3319903,386.59993 C -4.3319903,374.81156 -6.9148779,369.07881 -15.025775,368.58271 C -25.625064,368.58271 -30.373482,377.09521 -30.373482,389.3718 L -30.373482,412.75954 L -39.689202,412.75954 L -39.689202,362.24361"
         id="path2466"
         style="fill:#008fc6;fill-opacity:1;fill-rule:nonzero;stroke:none" />
    </g>
  </g>
</svg>
