<?xml version="1.0" encoding="iso-8859-1"?>
<!-- Generator: Adobe Illustrator 18.0.0, SVG Export Plug-In . SVG Version: 6.00 Build 0)  -->
<!DOCTYPE svg PUBLIC "-//W3C//DTD SVG 1.1//EN" "http://www.w3.org/Graphics/SVG/1.1/DTD/svg11.dtd">
<svg version="1.1" id="Capa_1" xmlns="http://www.w3.org/2000/svg" xmlns:xlink="http://www.w3.org/1999/xlink" x="0px" y="0px"
	 viewBox="0 0 464.77 464.77" style="enable-background:new 0 0 464.77 464.77;" xml:space="preserve">
<path d="M464.557,346.786c-0.362-1.063-1.154-1.926-2.184-2.377L278.68,264.043l18.009-10.394
	c17.601-10.153,33.09-23.215,46.081-38.828l81.966,2.157c0.035,0.001,0.07,0.001,0.105,0.001c0.76,0,1.505-0.217,2.147-0.625
	l15.809-10.06c1.369-0.871,2.076-2.483,1.79-4.081s-1.51-2.863-3.097-3.205l-76.998-16.545l13.027-22.024
	c2.643-4.467,3.27-9.627,1.766-14.53c-1.142-3.723-3.419-6.958-6.446-9.264l24.115-62.346c0.608-1.571,0.167-3.354-1.104-4.46
	c-1.27-1.105-3.096-1.296-4.569-0.48l-45.271,25.15c-0.498,0.276-0.93,0.655-1.269,1.112l-37.888,51.017l-20.96-31.445
	c-1.204-1.807-3.628-2.324-5.464-1.163l-13.657,8.623c-1.282,0.81-1.996,2.274-1.844,3.783l4.903,48.667
	c-21.409,12.326-47.276,27.23-73.978,42.643l-93.161-82.493c-1.133-1.002-2.735-1.28-4.137-0.719
	c-12.102,4.841-18.042,18.209-13.522,30.435l17.335,46.889L74.347,230.49c-3.528,2.149-5.664,6.234-5.855,11.276
	c-0.172,4.54,1.19,9.564,3.836,14.147c2.646,4.583,6.316,8.275,10.334,10.396c2.434,1.285,4.913,1.931,7.252,1.931
	c2.036,0,3.966-0.49,5.668-1.473c0.097-0.056,21.548-14.972,21.548-14.972l3.496,9.458c-29.133,16.895-54.731,31.814-71.057,41.476
	c-18.1,10.712-32.413,25.996-41.392,44.198c-3.078,6.24-5.553,12.81-7.357,19.527c-2.218,8.279,0.115,16.796,6.24,22.781
	c4.464,4.362,10.224,6.678,16.205,6.678c2.218,0,4.467-0.319,6.69-0.97c14.834-4.358,29.524-9.638,43.659-15.692
	c14.149-6.057,28.109-13.044,41.493-20.769l73.016-42.164l64.575,12.244l-12.553,8.141c-3.552,2.142-5.702,6.242-5.894,11.304
	c-0.172,4.54,1.19,9.563,3.836,14.146c4.461,7.727,11.394,12.336,17.599,12.336c1.996,0,3.916-0.477,5.655-1.48
	c0.098-0.057,48.396-33.631,48.396-33.631l126.264,23.941c1.671,0.317,3.341,0.471,4.995,0.471c9.569,0,18.53-5.163,23.274-13.789
	C464.816,349.017,464.919,347.85,464.557,346.786z M430.273,204.781l-6.549,4.167l-98.9-2.602
	c6.797-5.237,18.459-12.221,29.434-17.899L430.273,204.781z M350.648,101.083l34.857-19.364l-24.937,64.469l-71.463,37.766
	L350.648,101.083z M281.4,122.877l20.386,30.584l-4.218,5.68c-5.936,3.415-12.706,7.31-20.137,11.588l-4.295-42.632L281.4,122.877z
	 M92.083,259.47l-0.594,0.413c-1.227,0.646-3.071,0.418-5.091-0.648c-2.663-1.405-5.266-4.074-7.14-7.321
	c-1.875-3.247-2.885-6.835-2.771-9.845c0.088-2.338,0.842-4.085,2.068-4.793c0.473-0.272,1.044-0.408,1.688-0.408
	c1.023,0,2.227,0.343,3.498,1.014c2.663,1.405,5.266,4.074,7.14,7.321C94.368,251.242,94.345,257.403,92.083,259.47z
	 M101.587,252.861c-0.291-3.736-1.532-7.77-3.777-11.658c-2.548-4.413-6.049-7.985-9.892-10.139l17.3-11.497l9.049,24.478
	L101.587,252.861z M92.535,162.194c-2.724-7.369,0.266-15.361,6.844-19.188l89.167,78.957
	c-20.547,11.864-41.386,23.912-60.894,35.219L92.535,162.194z M14.278,384.9c-0.565-0.42-1.108-0.881-1.624-1.385
	c-4.021-3.929-5.556-9.518-4.112-14.954c1.32-0.899,2.863-1.393,4.444-1.393c4.587,0,8.32,4.003,8.32,8.924
	C21.305,380.512,18.242,384.228,14.278,384.9z M111.11,351.554c-13.109,7.566-26.783,14.41-40.643,20.343
	c-13.845,5.931-28.233,11.103-42.761,15.37c-1.004,0.293-2.015,0.483-3.022,0.574c2.854-3.057,4.621-7.209,4.621-11.75
	c0-9.332-7.321-16.924-16.32-16.924c-0.482,0-0.961,0.023-1.438,0.066c1.128-2.983,2.398-5.913,3.807-8.768
	c0.23-0.466,0.478-0.922,0.715-1.384c4.341,5.185,12.796,7.796,25.204,7.796c3.167,0,6.591-0.17,10.27-0.51
	c2.2-0.204,3.818-2.152,3.614-4.353s-2.157-3.796-4.352-3.614c-19.884,1.846-26.398-1.934-28.512-4.346
	c-1.189-1.356-1.33-2.707-1.299-3.447c8.164-12.49,19.283-23.084,32.65-30.995c46.308-27.407,167.28-97.136,231.953-134.357
	l-13.435,18.091c-1.114,1.5-1.042,3.572,0.175,4.99c0.781,0.91,1.9,1.396,3.038,1.396c0.635,0,1.275-0.151,1.867-0.464
	l88.387-46.708c0.853-0.45,1.514-1.193,1.861-2.093l2.233-5.773c0.848,1.039,1.508,2.241,1.912,3.559
	c0.836,2.725,0.479,5.605-1.003,8.112l-14.387,24.324l-1.705-0.366c-0.9-0.192-1.839-0.069-2.66,0.349
	c-5.835,2.979-35.18,18.316-39.843,27.643c-0.612,1.224-0.556,2.675,0.147,3.847c0.704,1.173,1.958,1.905,3.325,1.941l16.922,0.445
	c-11.482,12.757-24.816,23.56-39.742,32.171l-23.113,13.341l-2.66-1.164c-0.885-0.387-1.88-0.44-2.802-0.151
	c-2.563,0.805-63.079,20.03-90.771,48.452c-1.028,1.055-1.393,2.589-0.95,3.994c0.443,1.405,1.623,2.452,3.07,2.727l0.619,0.117
	L111.11,351.554z M257.831,365.727l-0.555,0.386c-2.772,1.495-8.558-1.552-12.257-7.958c-1.875-3.247-2.884-6.835-2.77-9.844
	c0.088-2.339,0.843-4.086,2.068-4.794c0.48-0.276,1.054-0.412,1.696-0.412c3.029,0,7.553,3.011,10.629,8.339h0
	C260.138,357.497,260.108,363.673,257.831,365.727z M267.349,359.11c-0.289-3.738-1.531-7.774-3.778-11.666h0
	c-2.616-4.532-6.084-7.984-9.756-10.071l10.329-6.64l34.586,6.558L267.349,359.11z M437.495,355.461L184.714,307.53
	c25.794-21.973,71.771-37.841,80.391-40.693l189.563,82.934C450.387,354.443,443.941,356.685,437.495,355.461z"/>
<g>
</g>
<g>
</g>
<g>
</g>
<g>
</g>
<g>
</g>
<g>
</g>
<g>
</g>
<g>
</g>
<g>
</g>
<g>
</g>
<g>
</g>
<g>
</g>
<g>
</g>
<g>
</g>
<g>
</g>
</svg>
