<?xml version="1.0" encoding="iso-8859-1"?>
<!-- Generator: Adobe Illustrator 18.0.0, SVG Export Plug-In . SVG Version: 6.00 Build 0)  -->
<!DOCTYPE svg PUBLIC "-//W3C//DTD SVG 1.1//EN" "http://www.w3.org/Graphics/SVG/1.1/DTD/svg11.dtd">
<svg version="1.1" id="Capa_1" xmlns="http://www.w3.org/2000/svg" xmlns:xlink="http://www.w3.org/1999/xlink" x="0px" y="0px"
	 viewBox="0 0 465.249 465.249" style="enable-background:new 0 0 465.249 465.249;" xml:space="preserve">
<path d="M463.924,171.628c-2.196-15.696-10.881-29.217-24.294-37.808l1.504-0.583c1.436-0.557,2.425-1.887,2.543-3.422
	s-0.654-3.002-1.988-3.771L372.73,86.221V43.463c0-9.212-11.594-16.159-26.969-16.159c-15.374,0-26.968,6.947-26.968,16.159v11.615
	l-27.666-15.973c-1.049-0.606-2.316-0.703-3.445-0.266l-105.51,40.899c-1.436,0.557-2.425,1.887-2.543,3.422
	s0.655,3.002,1.988,3.771l36.641,21.158v53.83L27.148,272.244c-17.096,9.867-27.209,27.505-27.1,47.181
	c-0.113,4.557,0.007,21.292,0.007,21.923c0,19.599,10.129,37.152,27.096,46.957c1.857,1.073,32.364,20.99,32.364,20.99
	c26.344,17.633,57.015,27.507,88.698,28.557c1.882,0.063,3.756,0.094,5.634,0.094c29.742,0,58.938-7.808,84.76-22.717
	l157.844-91.131c32.134-18.552,54.333-50.137,60.907-86.655c0,0,3.244-15.637,3.578-16.521c2.762-7.301,4.49-23.229,4.299-35.293
	C465.168,181.392,464.075,172.705,463.924,171.628z M332.179,173.872c0.615,0.355,1.307,0.536,2,0.536
	c0.489,0,0.979-0.09,1.445-0.271l0.064-0.025v44.206l-50-28.872v-42.421L332.179,173.872z M420.191,141.356v68.974l-18.503,10.682
	v-72.483L420.191,141.356z M393.688,225.63l-25,14.433v-78.742l25-9.691V225.63z M360.688,244.681l-17,9.814v-83.484l17-6.59
	V244.681z M335.688,227.556v26.939l-109.43-63.187v-26.94L335.688,227.556z M220.259,197.081l117.43,67.807
	c0.619,0.357,1.31,0.536,2,0.536s1.381-0.179,2-0.536l84.503-48.785c1.237-0.714,2-2.035,2-3.464v-56.455
	c1.664,0.884,3.308,1.79,4.917,2.719c11.76,6.789,19.612,17.745,22.2,30.901c-2.807,12.308-10.566,23.027-21.94,29.592
	l-242.189,139.83c-24.679,14.248-52.339,21.371-80.008,21.369c-27.669-0.001-55.346-7.128-80.022-21.379
	c-0.054-0.031-0.109-0.062-0.165-0.091c-7.755-4.517-13.828-10.963-17.77-18.559c-3.946-7.604-3.887-16.572,0.212-24.095
	c3.978-7.299,9.929-13.399,17.463-17.747l187.37-108.167v3.062C218.259,195.046,219.021,196.366,220.259,197.081z M433.369,139.354
	c11.402,6.578,19.139,17.153,21.936,29.626c-4.542-6.869-10.683-12.668-18.196-17.005c-2.889-1.669-5.88-3.272-8.918-4.789v-8.931
	l1.907-0.739C431.243,138.139,432.325,138.746,433.369,139.354z M326.794,75.999c4.8,2.79,11.427,4.465,18.968,4.465
	c7.542,0,14.169-1.674,18.969-4.465v47.377c0,3.327-7.39,8.159-18.969,8.159s-18.968-4.832-18.968-8.159V75.999z M345.762,72.464
	c-11.579,0-18.968-4.832-18.968-8.159v-9.146c4.8,2.791,11.427,4.465,18.968,4.465c7.542,0,14.169-1.674,18.969-4.465v9.146
	C364.73,67.632,357.341,72.464,345.762,72.464z M345.762,35.304c11.579,0,18.969,4.832,18.969,8.159s-7.39,8.16-18.969,8.16
	s-18.968-4.833-18.968-8.16S334.182,35.304,345.762,35.304z M288.787,46.99l30.007,17.324v59.061
	c0,9.212,11.594,16.159,26.968,16.159c15.375,0,26.969-6.947,26.969-16.159V95.458l57.728,33.338l-95.938,37.19L192.849,84.18
	L288.787,46.99z M277.688,142.407v42.421l-51.43-29.697v-42.421L277.688,142.407z M31.148,279.172l187.11-108.016v10.162
	L26.889,291.794c-7.084,4.089-12.967,9.51-17.435,15.912C12.441,295.789,20.071,285.566,31.148,279.172z M8.634,348.616
	c4.575,7.08,10.844,13.103,18.504,17.526c0.057,0.033,0.114,0.064,0.173,0.094c25.872,14.903,54.864,22.354,83.859,22.354
	c29.049,0,58.098-7.479,84.008-22.438l242.188-139.829c7.493-4.324,13.647-10.186,18.19-17.048
	c-0.585,3.585-1.296,6.683-2.103,8.816c-3.756,9.927-10.703,18.04-20.092,23.462L191.184,381.377
	c-24.681,14.251-52.345,21.375-80.017,21.373c-27.666-0.001-55.341-7.126-80.016-21.372
	C18.827,374.255,10.756,362.327,8.634,348.616z M189.578,391.569c0,8.981-3.623,14.94-6.02,14.94c-1.795,0-4.494-3.583-5.564-9.585
	c3.913-1.693,7.778-3.53,11.579-5.535C189.574,391.449,189.578,391.508,189.578,391.569z M392.451,317.17l-157.844,91.131
	c-26.157,15.102-55.936,22.553-86.129,21.556c-28.701-0.951-56.521-9.517-80.765-24.794c14.218,3.788,28.834,5.686,43.454,5.685
	c20.109-0.001,40.222-3.593,59.293-10.762c1.989,8.756,6.993,14.524,13.098,14.524c7.992,0,14.02-9.862,14.02-22.94
	c0-1.529-0.096-3.028-0.265-4.492l240.049-138.595c4.231-2.443,8.036-5.36,11.374-8.684
	C441.772,272.39,421.428,300.44,392.451,317.17z"/>
<g>
</g>
<g>
</g>
<g>
</g>
<g>
</g>
<g>
</g>
<g>
</g>
<g>
</g>
<g>
</g>
<g>
</g>
<g>
</g>
<g>
</g>
<g>
</g>
<g>
</g>
<g>
</g>
<g>
</g>
</svg>
