<?xml version="1.0" encoding="iso-8859-1"?>
<!-- Generator: Adobe Illustrator 19.0.0, SVG Export Plug-In . SVG Version: 6.00 Build 0)  -->
<svg version="1.1" id="Layer_1" xmlns="http://www.w3.org/2000/svg" xmlns:xlink="http://www.w3.org/1999/xlink" x="0px" y="0px"
	 viewBox="0 0 512.001 512.001" style="enable-background:new 0 0 512.001 512.001;" xml:space="preserve">
<path style="fill:#B1B0BC;" d="M437.019,74.981C388.667,26.629,324.38,0,256.001,0S123.333,26.629,74.981,74.981
	C26.629,123.333,0,187.62,0,256.001s26.629,132.667,74.981,181.02c48.353,48.352,112.639,74.981,181.02,74.981
	s132.667-26.629,181.02-74.981c48.352-48.353,74.981-112.639,74.981-181.02S485.372,123.333,437.019,74.981z"/>
<g>
	<path style="fill:#CFCDCF;" d="M256.001,0c-68.38,0-132.667,26.629-181.02,74.981C26.629,123.333,0,187.62,0,256.001
		s26.629,132.667,74.981,181.02c48.353,48.352,112.639,74.981,181.02,74.981V0z"/>
	<circle style="fill:#CFCDCF;" cx="255.998" cy="255.998" r="181.67"/>
</g>
<path style="fill:#FFFFFF;" d="M256.001,437.671c-100.334,0-181.672-81.337-181.672-181.672S155.666,74.329,256.001,74.329V437.671z
	"/>
<path style="fill:#FF9900;" d="M302.725,304.272h-46.099c-8.801,0-15.936-7.134-15.936-15.936l-0.003-82.686
	c0-8.801,7.134-15.936,15.936-15.937c8.801,0,15.936,7.134,15.937,15.936l0.003,66.75h30.164c8.801,0,15.936,7.135,15.936,15.936
	S311.526,304.272,302.725,304.272z"/>
<path style="fill:#FAD52A;" d="M256.625,304.272c-8.801,0-15.936-7.134-15.936-15.936l-0.003-82.686
	c0-8.801,7.134-15.936,15.936-15.937L256.625,304.272z"/>
<g>
	<path style="fill:#555559;" d="M256.001,117.857c-8.801,0-15.936-7.135-15.936-15.936V76.311c0-8.801,7.135-15.936,15.936-15.936
		c8.801,0,15.936,7.135,15.936,15.936v25.61C271.937,110.722,264.801,117.857,256.001,117.857z"/>
	<path style="fill:#555559;" d="M256.001,117.857c-8.801,0-15.936-7.135-15.936-15.936V76.311c0-8.801,7.135-15.936,15.936-15.936
		V117.857z"/>
	<path style="fill:#555559;" d="M256.001,444.229c-8.801,0-15.936-7.135-15.936-15.936v-25.611c0-8.801,7.135-15.936,15.936-15.936
		c8.801,0,15.936,7.135,15.936,15.936v25.61C271.937,437.094,264.801,444.229,256.001,444.229z"/>
	<path style="fill:#555559;" d="M256.001,444.229c-8.801,0-15.936-7.135-15.936-15.936v-25.611c0-8.801,7.135-15.936,15.936-15.936
		V444.229z"/>
	<path style="fill:#555559;" d="M431.991,268.239h-25.61c-8.801,0-15.936-7.135-15.936-15.936c0-8.801,7.135-15.936,15.936-15.936
		h25.61c8.801,0,15.936,7.135,15.936,15.936C447.927,261.103,440.792,268.239,431.991,268.239z"/>
	<path style="fill:#555559;" d="M105.619,268.239H80.009c-8.801,0-15.936-7.135-15.936-15.936c0-8.801,7.135-15.936,15.936-15.936
		h25.61c8.801,0,15.936,7.135,15.936,15.936C121.554,261.103,114.42,268.239,105.619,268.239z"/>
	<path style="fill:#555559;" d="M362.335,161.903c-4.079,0-8.157-1.556-11.268-4.667c-6.223-6.223-6.223-16.314,0-22.537
		l18.109-18.109c6.224-6.224,16.314-6.223,22.537,0c6.223,6.223,6.223,16.314,0,22.537l-18.109,18.109
		C370.492,160.348,366.414,161.903,362.335,161.903z"/>
	<path style="fill:#555559;" d="M131.556,392.683c-4.079,0-8.157-1.556-11.268-4.668c-6.223-6.223-6.223-16.314,0-22.537
		l18.109-18.109c6.223-6.224,16.314-6.224,22.537,0c6.223,6.223,6.223,16.314,0,22.537l-18.109,18.109
		C139.713,391.127,135.634,392.683,131.556,392.683z"/>
	<path style="fill:#555559;" d="M380.444,392.683c-4.079,0-8.157-1.556-11.268-4.668l-18.109-18.109
		c-6.223-6.223-6.223-16.314,0-22.537c6.223-6.224,16.314-6.224,22.537,0l18.109,18.109c6.223,6.223,6.223,16.314,0,22.537
		C388.601,391.127,384.523,392.683,380.444,392.683z"/>
	<path style="fill:#555559;" d="M149.665,161.903c-4.079,0-8.157-1.556-11.269-4.668l-18.109-18.109
		c-6.223-6.223-6.223-16.314,0-22.537c6.223-6.222,16.314-6.223,22.537,0l18.109,18.109c6.223,6.223,6.223,16.314,0,22.537
		C157.822,160.347,153.743,161.903,149.665,161.903z"/>
</g>
<path style="fill:#FAD52A;" d="M256.001,451.625c-107.868,0-195.625-87.757-195.625-195.625S148.132,60.375,256.001,60.375
	s195.625,87.758,195.625,195.626S363.868,451.625,256.001,451.625z M256.001,92.248c-90.294,0-163.753,73.459-163.753,163.753
	s73.459,163.753,163.753,163.753s163.753-73.459,163.753-163.753S346.293,92.248,256.001,92.248z"/>
<path style="fill:#FFEA5E;" d="M256.001,92.248V60.375c-107.868,0-195.625,87.757-195.625,195.625s87.757,195.626,195.625,195.626
	v-31.872c-90.294,0-163.753-73.459-163.753-163.753S165.707,92.248,256.001,92.248z"/>
<g>
</g>
<g>
</g>
<g>
</g>
<g>
</g>
<g>
</g>
<g>
</g>
<g>
</g>
<g>
</g>
<g>
</g>
<g>
</g>
<g>
</g>
<g>
</g>
<g>
</g>
<g>
</g>
<g>
</g>
</svg>
