<?xml version="1.0" encoding="iso-8859-1"?>
<!-- Generator: Adobe Illustrator 19.0.0, SVG Export Plug-In . SVG Version: 6.00 Build 0)  -->
<svg version="1.1" id="Layer_1" xmlns="http://www.w3.org/2000/svg" xmlns:xlink="http://www.w3.org/1999/xlink" x="0px" y="0px"
	 viewBox="0 0 511.999 511.999" style="enable-background:new 0 0 511.999 511.999;" xml:space="preserve">
<path style="fill:#00D8E0;" d="M421.437,159.318H55.426C24.864,159.318,0,184.182,0,214.745v230.913
	c0,30.562,24.864,55.426,55.426,55.426h366.01c30.562,0,55.426-24.864,55.426-55.426V214.745
	C476.864,184.182,452,159.318,421.437,159.318z"/>
<path style="fill:#B9F7F9;" d="M238.431,159.318H55.426C24.864,159.318,0,184.182,0,214.745v230.913
	c0,30.562,24.864,55.426,55.426,55.426h183.005L238.431,159.318L238.431,159.318z"/>
<path style="fill:#555559;" d="M476.864,214.745c0-30.562-24.864-55.426-55.426-55.426H55.426C24.864,159.318,0,184.182,0,214.745
	v32.576h476.864V214.745z"/>
<path style="fill:#AEADB3;" d="M238.137,159.318H55.426C24.864,159.318,0,184.182,0,214.745v32.576h238.431L238.137,159.318z"/>
<path style="fill:#A2A9B0;" d="M409.59,10.914c-42.344,0-76.793,34.449-76.793,76.793v20.658h36.08V87.707
	c0-22.449,18.264-40.713,40.714-40.713c22.449,0,40.713,18.264,40.713,40.713v20.658h36.08V87.707
	C486.384,45.364,451.935,10.914,409.59,10.914z"/>
<path style="fill:#CFCDCF;" d="M409.59,10.914c-42.344,0-76.793,34.449-76.793,76.793v20.658h36.08V87.707
	c0-22.449,18.264-40.713,40.714-40.713C409.591,46.994,409.591,16.776,409.59,10.914z"/>
<path style="fill:#FF9900;" d="M493.96,101.751h-7.576H325.221c-9.963,0-18.04,8.077-18.04,18.04v168.738
	c0,9.963,8.077,18.04,18.04,18.04h168.738c9.963,0,18.04-8.077,18.04-18.04V119.791C512,109.828,503.923,101.751,493.96,101.751z"/>
<path style="fill:#FAD52A;" d="M409.59,101.751h-84.369c-9.963,0-18.04,8.077-18.04,18.04v168.738c0,9.963,8.077,18.04,18.04,18.04
	h84.369V101.751z"/>
<path style="fill:#555559;" d="M435.103,204.16l15.928-15.928c7.045-7.045,7.045-18.467,0-25.512
	c-7.044-7.045-18.467-7.045-25.512,0l-15.928,15.928l-15.928-15.928c-7.044-7.045-18.467-7.045-25.512,0
	c-7.045,7.045-7.045,18.467,0,25.512l15.928,15.928l-15.928,15.928c-7.045,7.045-7.045,18.467,0,25.512
	c3.523,3.523,8.14,5.285,12.756,5.285c4.616,0,9.234-1.761,12.756-5.285l15.928-15.928l15.928,15.928
	c3.523,3.523,8.14,5.285,12.756,5.285s9.234-1.761,12.756-5.285c7.045-7.045,7.045-18.467,0-25.512L435.103,204.16z"/>
<path style="fill:#AEADB3;" d="M409.591,178.648l-15.928-15.928c-7.044-7.045-18.467-7.045-25.512,0
	c-7.045,7.045-7.045,18.467,0,25.512l15.928,15.928l-15.928,15.928c-7.045,7.045-7.045,18.467,0,25.512
	c3.523,3.523,8.14,5.285,12.756,5.285c4.616,0,9.234-1.761,12.756-5.285l15.928-15.928v-51.025H409.591z"/>
<g>
</g>
<g>
</g>
<g>
</g>
<g>
</g>
<g>
</g>
<g>
</g>
<g>
</g>
<g>
</g>
<g>
</g>
<g>
</g>
<g>
</g>
<g>
</g>
<g>
</g>
<g>
</g>
<g>
</g>
</svg>
