<svg height="512pt" viewBox="-27 0 512 512" width="512pt" xmlns="http://www.w3.org/2000/svg"><path d="m243.667969 134.378906v-51.746094h-15l-10.667969 45.367188 10.667969 34.054688c10.710937 0 19.429687 8.714843 19.429687 19.429687 0 7.910156-4.730468 14.964844-12.042968 17.980469l11.417968 27.738281c18.601563-7.65625 30.625-25.601563 30.625-45.71875 0-22.03125-14.484375-40.738281-34.429687-47.105469zm0 0" fill="#7a8c98"/><path d="m213.667969 82.632812v51.746094c-19.945313 6.367188-34.429688 25.074219-34.429688 47.101563 0 20.121093 12.019531 38.066406 30.625 45.722656l11.417969-27.742187c-7.316406-3.011719-12.042969-10.066407-12.042969-17.980469 0-10.710938 8.714844-19.425781 19.425781-19.425781v-79.421876zm0 0" fill="#8d9ca8"/><path d="m308.832031 14.332031h-80.164062l-21.332031 39 21.332031 51.335938h47.902343zm0 0" fill="#93bf00"/><path d="m148.5 14.332031 32.261719 90.335938h47.90625v-90.335938zm0 0" fill="#a8d32a"/><path d="m313 268.667969h-84.332031l-21.332031 83.332031 21.332031 64h84.332031zm0 0" fill="#eebb75"/><path d="m144.335938 268.667969h84.332031v147.332031h-84.332031zm0 0" fill="#f1c992"/><path d="m396.335938 390h-168.289063l-18.710937 58 18.710937 64h168.289063c16.292968 0 43.664062-61 43.664062-61s-10.03125-61-43.664062-61zm0 0" fill="#3b4a51"/><path d="m61 390c-33.636719 0-39.664062 61-39.664062 61s6.027343 61 39.664062 61h167.046875v-122zm0 0" fill="#465a61"/><path d="m61 512c-33.636719 0-61-27.363281-61-61s27.363281-61 61-61 61 27.363281 61 61-27.363281 61-61 61zm0-92c-17.09375 0-31 13.90625-31 31s13.90625 31 31 31 31-13.90625 31-31-13.90625-31-31-31zm0 0" fill="#8d9ca8"/><path d="m396.335938 512c-33.636719 0-61-27.363281-61-61s27.363281-61 61-61c33.632812 0 61 27.363281 61 61s-27.367188 61-61 61zm0-92c-17.097657 0-31 13.90625-31 31s13.90625 31 31 31c17.089843 0 31-13.90625 31-31s-13.910157-31-31-31zm0 0" fill="#697c86"/><path d="m452.667969 0h-224l-10.667969 10.667969 10.667969 19.332031h224zm0 0" fill="#7a8c98"/><path d="m4.667969 0h224v30h-224zm0 0" fill="#8d9ca8"/></svg>