<svg height="512pt" viewBox="-16 0 511 512" width="512pt" xmlns="http://www.w3.org/2000/svg"><path d="m278.136719 373.601562h-77.007813c-8.285156 0-15 6.71875-15 15.003907v108.394531c0 8.285156 6.714844 15 15 15h77.007813c8.28125 0 15-6.714844 15-15v-108.394531c0-8.285157-6.71875-15.003907-15-15.003907zm0 0" fill="#4fd2f5"/><path d="m186.128906 454.058594h107.007813v30h-107.007813zm0 0" fill="#2086ba"/><path d="m278.136719 373.601562h-38.503907v138.398438h38.503907c8.28125 0 15-6.714844 15-15v-108.394531c0-8.285157-6.71875-15.003907-15-15.003907zm0 0" fill="#2086ba"/><path d="m239.632812 454.058594h53.503907v30h-53.503907zm0 0" fill="#1c5a91"/><path d="m439.023438 62.921875c-8.285157 0-15 6.714844-15 15v105.359375c0 8.285156 6.714843 15 15 15 8.28125 0 15-6.714844 15-15v-105.359375c0-8.285156-6.71875-15-15-15zm0 0" fill="#2d3045"/><path d="m40.242188 62.921875c-8.285157 0-15 6.714844-15 15v105.359375c0 8.285156 6.714843 15 15 15 8.285156 0 15-6.714844 15-15v-105.359375c0-8.285156-6.714844-15-15-15zm0 0" fill="#4a5073"/><path d="m441.28125 168.414062h-34.769531c-20.667969 0-37.484375 16.816407-37.484375 37.484376v56.59375c0 20.667968 16.816406 37.480468 37.484375 37.480468h34.769531c20.667969 0 37.484375-16.8125 37.484375-37.480468v-56.59375c0-20.667969-16.816406-37.484376-37.484375-37.484376zm0 0" fill="#2086ba"/><path d="m72.75 168.414062h-34.765625c-20.667969 0-37.484375 16.816407-37.484375 37.484376v56.59375c0 20.667968 16.816406 37.480468 37.484375 37.480468h34.769531c20.667969 0 37.480469-16.8125 37.480469-37.480468v-56.59375c0-20.667969-16.816406-37.484376-37.484375-37.484376zm0 0" fill="#4fd2f5"/><path d="m293.53125 0h-107.800781c-63.511719 0-115.179688 51.667969-115.179688 115.179688v242.941406c0 41.355468 33.644531 75 75 75h188.160157c41.355468 0 75-33.644532 75-75v-242.941406c0-63.511719-51.667969-115.179688-115.179688-115.179688zm0 0" fill="#f5f6fa"/><path d="m293.53125 0h-53.898438v433.121094h94.078126c41.355468 0 75-33.644532 75-75v-242.941406c0-63.511719-51.667969-115.179688-115.179688-115.179688zm0 0" fill="#c1d7f7"/><path d="m318.265625 297.664062h-157.265625c-8.285156 0-15 6.714844-15 15v43.425782c0 8.285156 6.714844 15 15 15h157.265625c8.28125 0 15-6.714844 15-15v-43.425782c0-8.285156-6.71875-15-15-15zm0 0" fill="#7d8aba"/><path d="m318.265625 297.664062h-78.632813v73.425782h78.632813c8.28125 0 15-6.714844 15-15v-43.425782c0-8.285156-6.71875-15-15-15zm0 0" fill="#5f6996"/><path d="m263.136719 297.664062h30v73.425782h-30zm0 0" fill="#4a5073"/><path d="m186.128906 297.664062h30v73.425782h-30zm0 0" fill="#5f6996"/><path d="m225.832031 190.761719c0 26.753906-21.6875 48.445312-48.441406 48.445312-26.757813 0-48.445313-21.691406-48.445313-48.445312 0-26.753907 21.6875-48.445313 48.445313-48.445313 26.753906 0 48.441406 21.691406 48.441406 48.445313zm0 0" fill="#ffc144"/><path d="m225.832031 190.761719c0 26.753906-21.6875 48.445312-48.441406 48.445312v-96.890625c26.753906 0 48.441406 21.691406 48.441406 48.445313zm0 0" fill="#ff9e29"/><path d="m198.207031 190.761719c0 11.5-9.320312 20.820312-20.816406 20.820312-11.5 0-20.820313-9.320312-20.820313-20.820312 0-11.496094 9.320313-20.820313 20.820313-20.820313 11.496094 0 20.816406 9.324219 20.816406 20.820313zm0 0" fill="#7d8aba"/><path d="m198.207031 190.761719c0 11.5-9.320312 20.820312-20.816406 20.820312v-41.640625c11.496094 0 20.816406 9.324219 20.816406 20.820313zm0 0" fill="#4a5073"/><path d="m350.320312 190.761719c0 26.753906-21.691406 48.445312-48.445312 48.445312s-48.445312-21.691406-48.445312-48.445312c0-26.753907 21.691406-48.445313 48.445312-48.445313s48.445312 21.691406 48.445312 48.445313zm0 0" fill="#ffc144"/><path d="m350.320312 190.761719c0 26.753906-21.691406 48.445312-48.445312 48.445312v-96.890625c26.753906 0 48.445312 21.691406 48.445312 48.445313zm0 0" fill="#ff9e29"/><path d="m322.691406 190.761719c0 11.5-9.320312 20.820312-20.816406 20.820312-11.5 0-20.820312-9.320312-20.820312-20.820312 0-11.496094 9.320312-20.820313 20.820312-20.820313 11.496094 0 20.816406 9.324219 20.816406 20.820313zm0 0" fill="#7d8aba"/><path d="m322.691406 190.761719c0 11.5-9.320312 20.820312-20.816406 20.820312v-41.640625c11.496094 0 20.816406 9.324219 20.816406 20.820313zm0 0" fill="#4a5073"/><path d="m293.53125 0h-107.800781c-57.464844 0-105.230469 42.300781-113.804688 97.394531h335.414063c-8.578125-55.09375-56.34375-97.394531-113.808594-97.394531zm0 0" fill="#4fd2f5"/><path d="m407.339844 97.394531c-8.578125-55.09375-56.34375-97.394531-113.808594-97.394531h-53.898438v97.394531zm0 0" fill="#2086ba"/></svg>